<svg xmlns="http://www.w3.org/2000/svg" xmlns:xlink="http://www.w3.org/1999/xlink" viewBox="0 0 1066.67 600"><defs><linearGradient id="linear-gradient" x1="531.83" y1="-300.66" x2="531.83" y2="794.34" gradientUnits="userSpaceOnUse"><stop offset="0" stop-color="#010203"/><stop offset="1" stop-color="#02387d"/></linearGradient><linearGradient id="linear-gradient-2" x1="-154.69" y1="309.77" x2="1451.81" y2="866.16" gradientUnits="userSpaceOnUse"><stop offset="0.06" stop-color="#2c5391"/><stop offset="0.42" stop-color="#1c355c"/><stop offset="0.71" stop-color="#112147"/><stop offset="1" stop-color="#071036"/></linearGradient><linearGradient id="linear-gradient-3" x1="15.15" y1="525.43" x2="1342.03" y2="525.43" xlink:href="#linear-gradient-2"/><linearGradient id="linear-gradient-4" x1="-103.62" y1="522.53" x2="1006.77" y2="522.53" xlink:href="#linear-gradient-2"/><linearGradient id="linear-gradient-5" x1="-279.4" y1="599.5" x2="1085.19" y2="599.5" gradientUnits="userSpaceOnUse"><stop offset="0.1" stop-color="#1c355c"/><stop offset="0.39" stop-color="#112147"/><stop offset="0.69" stop-color="#071036"/></linearGradient><linearGradient id="linear-gradient-6" x1="-455.71" y1="488.34" x2="1082.07" y2="488.34" xlink:href="#linear-gradient-2"/><linearGradient id="linear-gradient-7" x1="-135.55" y1="549.56" x2="807.23" y2="549.56" xlink:href="#linear-gradient-2"/><linearGradient id="linear-gradient-8" x1="275.05" y1="531.5" x2="987.92" y2="531.5" xlink:href="#linear-gradient-2"/><linearGradient id="linear-gradient-9" x1="398.66" y1="521" x2="786.89" y2="521" xlink:href="#linear-gradient-2"/><linearGradient id="linear-gradient-10" x1="502.58" y1="539.37" x2="899.81" y2="539.37" xlink:href="#linear-gradient-2"/><linearGradient id="linear-gradient-11" x1="425.73" y1="564.99" x2="778.73" y2="564.99" xlink:href="#linear-gradient-2"/><linearGradient id="linear-gradient-12" x1="571.49" y1="561.66" x2="857.96" y2="561.66" xlink:href="#linear-gradient-2"/><linearGradient id="linear-gradient-13" x1="615.83" y1="507.59" x2="1606.1" y2="507.59" gradientUnits="userSpaceOnUse"><stop offset="0.06" stop-color="#385075"/><stop offset="0.42" stop-color="#112038"/><stop offset="1" stop-color="#071036"/></linearGradient><linearGradient id="linear-gradient-14" x1="149.06" y1="531.4" x2="-394.39" y2="666.92" xlink:href="#linear-gradient-13"/><linearGradient id="linear-gradient-15" x1="-57.04" y1="-57.35" x2="815.28" y2="718.31" gradientUnits="userSpaceOnUse"><stop offset="0.06" stop-color="#f5f3f0"/><stop offset="0.08" stop-color="#e9e7e6"/><stop offset="0.18" stop-color="#a6a7af"/><stop offset="0.27" stop-color="#6e7181"/><stop offset="0.36" stop-color="#43475d"/><stop offset="0.43" stop-color="#242943"/><stop offset="0.5" stop-color="#111734"/><stop offset="0.54" stop-color="#0a102e"/><stop offset="0.94" stop-color="#0c162b"/></linearGradient><linearGradient id="linear-gradient-16" x1="446.79" y1="29.83" x2="684.77" y2="417.75" gradientUnits="userSpaceOnUse"><stop offset="0.46" stop-color="#0b1324"/><stop offset="0.94" stop-color="#091329"/></linearGradient><linearGradient id="linear-gradient-17" x1="480.15" y1="-4.41" x2="784.83" y2="492.21" xlink:href="#linear-gradient-16"/><linearGradient id="linear-gradient-18" x1="-157.35" y1="-1353.01" x2="3684.83" y2="4909.8" xlink:href="#linear-gradient-16"/><linearGradient id="linear-gradient-19" x1="297.94" y1="-0.09" x2="1126.2" y2="1349.98" xlink:href="#linear-gradient-16"/><linearGradient id="linear-gradient-20" x1="426.86" y1="113.42" x2="669.45" y2="508.85" xlink:href="#linear-gradient-16"/><linearGradient id="linear-gradient-21" x1="366.96" y1="-89.57" x2="1163.19" y2="1208.3" xlink:href="#linear-gradient-16"/><linearGradient id="linear-gradient-22" x1="286.78" y1="-267.07" x2="1818.61" y2="2229.83" xlink:href="#linear-gradient-16"/><linearGradient id="linear-gradient-23" x1="254.81" y1="-542.82" x2="2388.22" y2="2934.69" xlink:href="#linear-gradient-16"/><linearGradient id="linear-gradient-24" x1="138.48" y1="186.79" x2="449.24" y2="693.33" gradientUnits="userSpaceOnUse"><stop offset="0.03" stop-color="#e6eff5"/><stop offset="0.8" stop-color="#ebeef5" stop-opacity="0"/></linearGradient><linearGradient id="linear-gradient-25" x1="293" y1="253.24" x2="411.25" y2="445.98" xlink:href="#linear-gradient-24"/><linearGradient id="linear-gradient-26" x1="235.98" y1="316.43" x2="380.55" y2="552.08" xlink:href="#linear-gradient-24"/><linearGradient id="linear-gradient-27" x1="318.47" y1="154.48" x2="661.46" y2="713.54" xlink:href="#linear-gradient-24"/><linearGradient id="linear-gradient-28" x1="263.86" y1="364.39" x2="389.37" y2="568.97" xlink:href="#linear-gradient-24"/><linearGradient id="linear-gradient-29" x1="672.97" y1="194.16" x2="957.07" y2="758.71" gradientUnits="userSpaceOnUse"><stop offset="0" stop-color="#e6eff5"/><stop offset="0.14" stop-color="#8d95a0"/><stop offset="0.26" stop-color="#444c5a"/><stop offset="0.35" stop-color="#171e2f"/><stop offset="0.4" stop-color="#060d1f"/><stop offset="0.84" stop-color="#0b1324"/></linearGradient><linearGradient id="linear-gradient-30" x1="0.71" y1="-899.33" x2="1857.47" y2="2127.22" gradientUnits="userSpaceOnUse"><stop offset="0.4" stop-color="#04121f"/><stop offset="0.84" stop-color="#061329"/></linearGradient><linearGradient id="linear-gradient-31" x1="261.91" y1="-599.5" x2="1708.43" y2="1758.35" gradientUnits="userSpaceOnUse"><stop offset="0.48" stop-color="#306b7d"/><stop offset="0.85" stop-color="#225c73"/></linearGradient><linearGradient id="linear-gradient-32" x1="385.2" y1="138.84" x2="781.37" y2="784.6" xlink:href="#linear-gradient-24"/><linearGradient id="linear-gradient-33" x1="690.48" y1="137.36" x2="1022.01" y2="677.75" xlink:href="#linear-gradient-24"/><linearGradient id="linear-gradient-34" x1="810.01" y1="-22.26" x2="1288.63" y2="757.91" gradientUnits="userSpaceOnUse"><stop offset="0" stop-color="#f5edda"/><stop offset="0.55" stop-color="#f5c55d" stop-opacity="0"/></linearGradient><linearGradient id="linear-gradient-35" x1="706.64" y1="262.39" x2="1103.96" y2="611.65" xlink:href="#linear-gradient-29"/><linearGradient id="linear-gradient-36" x1="284.1" y1="-309.57" x2="1006.53" y2="868" xlink:href="#linear-gradient-30"/><linearGradient id="linear-gradient-37" x1="382.47" y1="-372.17" x2="1203.16" y2="965.55" xlink:href="#linear-gradient-30"/><linearGradient id="linear-gradient-38" x1="292.75" y1="-624.41" x2="1312.17" y2="1037.26" xlink:href="#linear-gradient-30"/><linearGradient id="linear-gradient-39" x1="516.21" y1="73.48" x2="868.2" y2="647.24" xlink:href="#linear-gradient-24"/><linearGradient id="linear-gradient-40" x1="745.91" y1="75.34" x2="1041.36" y2="556.94" xlink:href="#linear-gradient-24"/><linearGradient id="linear-gradient-41" x1="764.62" y1="313.84" x2="930.4" y2="584.06" xlink:href="#linear-gradient-24"/><linearGradient id="linear-gradient-42" x1="262.68" y1="185.5" x2="36.53" y2="679.85" xlink:href="#linear-gradient-15"/><linearGradient id="linear-gradient-43" x1="428.47" y1="-500.88" x2="-82.28" y2="917.8" xlink:href="#linear-gradient-30"/><linearGradient id="linear-gradient-44" x1="414.55" y1="-93.12" x2="112.48" y2="745.9" gradientUnits="userSpaceOnUse"><stop offset="0.11" stop-color="#040608"/><stop offset="0.87" stop-color="#020405"/></linearGradient><linearGradient id="linear-gradient-45" x1="412.64" y1="-303.79" x2="20.44" y2="785.56" xlink:href="#linear-gradient-30"/><linearGradient id="linear-gradient-46" x1="121.92" y1="161.94" x2="15.98" y2="456.21" xlink:href="#linear-gradient-24"/><linearGradient id="linear-gradient-47" x1="328.76" y1="304.37" x2="235.27" y2="564.06" xlink:href="#linear-gradient-24"/><linearGradient id="linear-gradient-48" x1="194.54" y1="357.55" x2="112.93" y2="584.22" xlink:href="#linear-gradient-24"/><linearGradient id="linear-gradient-49" x1="146.51" y1="210.97" x2="21" y2="559.58" xlink:href="#linear-gradient-24"/><linearGradient id="linear-gradient-50" x1="466.92" y1="-39.22" x2="1171.67" y2="180.51" gradientUnits="userSpaceOnUse"><stop offset="0.01" stop-color="#f5f5f5"/><stop offset="0.11" stop-color="#c7c7c7"/><stop offset="0.23" stop-color="#939393"/><stop offset="0.36" stop-color="#666"/><stop offset="0.49" stop-color="#414141"/><stop offset="0.62" stop-color="#252525"/><stop offset="0.75" stop-color="#101010"/><stop offset="0.88" stop-color="#040404"/><stop offset="1"/></linearGradient><radialGradient id="radial-gradient" cx="598.31" cy="366.29" r="7.82" gradientUnits="userSpaceOnUse"><stop offset="0.01" stop-color="#2e2511"/><stop offset="0.08" stop-color="#1d1f23"/><stop offset="0.15" stop-color="#111b2f"/><stop offset="0.22" stop-color="#0d1a33"/><stop offset="0.72" stop-color="#0b1536"/></radialGradient><radialGradient id="radial-gradient-2" cx="631.25" cy="355.32" r="7.37" xlink:href="#radial-gradient"/><radialGradient id="radial-gradient-3" cx="546.29" cy="216.71" r="7.63" xlink:href="#radial-gradient"/><radialGradient id="radial-gradient-4" cx="636.29" cy="242.75" r="8.82" xlink:href="#radial-gradient"/><radialGradient id="radial-gradient-5" cx="472.16" cy="426.05" r="9.5" xlink:href="#radial-gradient"/><radialGradient id="radial-gradient-6" cx="571.34" cy="456.08" r="7.51" xlink:href="#radial-gradient"/><radialGradient id="radial-gradient-7" cx="664.87" cy="420.28" r="8.16" xlink:href="#radial-gradient"/><radialGradient id="radial-gradient-8" cx="872.99" cy="217.86" r="11.5" xlink:href="#radial-gradient"/><radialGradient id="radial-gradient-9" cx="990.96" cy="347.7" r="11.99" xlink:href="#radial-gradient"/><radialGradient id="radial-gradient-10" cx="782.7" cy="493.76" r="10.98" xlink:href="#radial-gradient"/><radialGradient id="radial-gradient-11" cx="679.92" cy="530.12" r="10.25" xlink:href="#radial-gradient"/><radialGradient id="radial-gradient-12" cx="912.51" cy="513.07" r="23.65" xlink:href="#radial-gradient"/><radialGradient id="radial-gradient-13" cx="675.24" cy="112.45" r="38.99" gradientUnits="userSpaceOnUse"><stop offset="0.01" stop-color="#2e2511"/><stop offset="0.03" stop-color="#292211"/><stop offset="0.09" stop-color="#151513"/><stop offset="0.16" stop-color="#090d14"/><stop offset="0.22" stop-color="#050a14"/><stop offset="0.45" stop-color="#03050b"/><stop offset="0.72" stop-color="#010205"/></radialGradient><radialGradient id="radial-gradient-14" cx="692.8" cy="123.01" r="32.73" xlink:href="#radial-gradient-13"/><radialGradient id="radial-gradient-15" cx="708.04" cy="123.06" r="28.88" xlink:href="#radial-gradient-13"/><radialGradient id="radial-gradient-16" cx="646.82" cy="112.32" r="40.01" xlink:href="#radial-gradient-13"/><radialGradient id="radial-gradient-17" cx="699.07" cy="137.85" r="27.22" gradientTransform="translate(17.9 0.35) scale(0.97 1)" xlink:href="#radial-gradient-13"/><radialGradient id="radial-gradient-18" cx="917.96" cy="91.47" r="38.99" xlink:href="#radial-gradient-13"/><radialGradient id="radial-gradient-19" cx="935.52" cy="102.03" r="32.73" xlink:href="#radial-gradient-13"/><radialGradient id="radial-gradient-20" cx="950.76" cy="102.09" r="28.88" xlink:href="#radial-gradient-13"/><radialGradient id="radial-gradient-21" cx="948.04" cy="116.84" r="27.22" gradientTransform="translate(17.9 0.35) scale(0.97 1)" xlink:href="#radial-gradient-13"/><radialGradient id="radial-gradient-22" cx="898.52" cy="124.16" r="22.15" gradientTransform="translate(-136.82 -59.76) scale(1.16 1.37)" xlink:href="#radial-gradient-13"/><radialGradient id="radial-gradient-23" cx="877.09" cy="106.52" r="32.73" xlink:href="#radial-gradient-13"/><radialGradient id="radial-gradient-24" cx="802.17" cy="90.04" r="32.73" xlink:href="#radial-gradient-13"/><radialGradient id="radial-gradient-25" cx="822.71" cy="92.54" r="38.11" gradientTransform="translate(128.08 30.17) scale(0.84 0.83)" xlink:href="#radial-gradient-13"/><radialGradient id="radial-gradient-26" cx="788.53" cy="100.43" r="27.89" xlink:href="#radial-gradient-13"/><radialGradient id="radial-gradient-27" cx="983.46" cy="211.4" r="32.73" xlink:href="#radial-gradient-13"/><radialGradient id="radial-gradient-28" cx="1039.65" cy="238.7" r="38.11" gradientTransform="translate(128.08 30.17) scale(0.84 0.83)" xlink:href="#radial-gradient-13"/><radialGradient id="radial-gradient-29" cx="966.83" cy="221.8" r="27.89" xlink:href="#radial-gradient-13"/><radialGradient id="radial-gradient-30" cx="1000.26" cy="196.44" r="32.25" xlink:href="#radial-gradient-13"/><radialGradient id="radial-gradient-31" cx="1061.17" cy="189.98" r="38.11" gradientTransform="translate(128.08 30.17) scale(0.84 0.83)" xlink:href="#radial-gradient-13"/><radialGradient id="radial-gradient-32" cx="956.18" cy="240" r="22.47" xlink:href="#radial-gradient-13"/><radialGradient id="radial-gradient-33" cx="897.91" cy="271.24" r="27.89" xlink:href="#radial-gradient-13"/><radialGradient id="radial-gradient-34" cx="890.47" cy="262.32" r="26.14" xlink:href="#radial-gradient-13"/><radialGradient id="radial-gradient-35" cx="784.19" cy="304.3" r="32.73" xlink:href="#radial-gradient-13"/><radialGradient id="radial-gradient-36" cx="758.57" cy="317.69" r="27.89" xlink:href="#radial-gradient-13"/><radialGradient id="radial-gradient-37" cx="737.43" cy="322.4" r="22.47" xlink:href="#radial-gradient-13"/><radialGradient id="radial-gradient-38" cx="773.63" cy="317.28" r="20.1" xlink:href="#radial-gradient-13"/><radialGradient id="radial-gradient-39" cx="986.46" cy="196.42" r="32.73" xlink:href="#radial-gradient-13"/><radialGradient id="radial-gradient-40" cx="735.17" cy="247.29" r="38.99" xlink:href="#radial-gradient-13"/><radialGradient id="radial-gradient-41" cx="760.22" cy="224.89" r="32.73" xlink:href="#radial-gradient-13"/><radialGradient id="radial-gradient-42" cx="863.46" cy="181.97" r="28.88" xlink:href="#radial-gradient-13"/><radialGradient id="radial-gradient-43" cx="752.86" cy="230.93" r="27.22" gradientTransform="translate(17.9 0.35) scale(0.97 1)" xlink:href="#radial-gradient-13"/><radialGradient id="radial-gradient-44" cx="753.91" cy="216.1" r="22.15" gradientTransform="translate(-136.82 -59.76) scale(1.16 1.37)" xlink:href="#radial-gradient-13"/><radialGradient id="radial-gradient-45" cx="646.35" cy="304.3" r="32.73" xlink:href="#radial-gradient-13"/><radialGradient id="radial-gradient-46" cx="626.36" cy="302.13" r="27.2" xlink:href="#radial-gradient-13"/><radialGradient id="radial-gradient-47" cx="668.28" cy="255" r="18.45" gradientTransform="translate(-136.82 -59.76) scale(1.16 1.37)" xlink:href="#radial-gradient-13"/><radialGradient id="radial-gradient-48" cx="760.02" cy="245.98" r="27.22" gradientTransform="translate(17.9 0.35) scale(0.97 1)" xlink:href="#radial-gradient-13"/><radialGradient id="radial-gradient-49" cx="1061" cy="52.02" r="38.43" gradientTransform="matrix(0.97, -0.01, 0.01, 1, 17.06, 6.55)" xlink:href="#radial-gradient-13"/><radialGradient id="radial-gradient-50" cx="1058.8" cy="31.54" r="38.99" xlink:href="#radial-gradient-13"/><radialGradient id="radial-gradient-51" cx="1043.32" cy="40.28" r="27.22" gradientTransform="translate(17.9 0.35) scale(0.97 1)" xlink:href="#radial-gradient-13"/><radialGradient id="radial-gradient-52" cx="883.81" cy="77.29" r="27.89" gradientTransform="matrix(-0.02, 1.33, -1.14, -0.02, 1180.29, -1130.36)" xlink:href="#radial-gradient-13"/><radialGradient id="radial-gradient-53" cx="907.72" cy="39.52" r="28.71" gradientTransform="matrix(0.39, 0.92, -0.92, 0.39, 714.8, -787.75)" xlink:href="#radial-gradient-13"/><radialGradient id="radial-gradient-54" cx="928.03" cy="311.79" r="32.73" xlink:href="#radial-gradient-13"/><radialGradient id="radial-gradient-55" cx="830.57" cy="378.14" r="27.89" gradientTransform="translate(108.73 54.01) scale(0.87 0.84)" xlink:href="#radial-gradient-13"/><radialGradient id="radial-gradient-56" cx="836.31" cy="362.86" r="22.47" xlink:href="#radial-gradient-13"/><radialGradient id="radial-gradient-57" cx="845.55" cy="360.73" r="20.1" xlink:href="#radial-gradient-13"/><radialGradient id="radial-gradient-58" cx="904.85" cy="376.36" r="27.89" gradientTransform="translate(108.73 54.01) scale(0.87 0.84)" xlink:href="#radial-gradient-13"/><radialGradient id="radial-gradient-59" cx="1124.92" cy="254.99" r="20.88" gradientTransform="matrix(-0.43, 0.75, -0.73, -0.42, 1571.82, -367.64)" xlink:href="#radial-gradient-13"/><radialGradient id="radial-gradient-60" cx="878.15" cy="277.31" r="31.95" xlink:href="#radial-gradient-13"/><radialGradient id="radial-gradient-61" cx="777.77" cy="226.36" r="31.95" xlink:href="#radial-gradient-13"/><radialGradient id="radial-gradient-62" cx="999.52" cy="247.34" r="31.95" xlink:href="#radial-gradient-13"/><radialGradient id="radial-gradient-63" cx="929.1" cy="331.24" r="31.95" xlink:href="#radial-gradient-13"/><radialGradient id="radial-gradient-64" cx="881.33" cy="213.32" r="38.99" gradientTransform="translate(1503.8 -345.07) rotate(128.23)" xlink:href="#radial-gradient-13"/><radialGradient id="radial-gradient-65" cx="717.44" cy="198.78" r="32.73" gradientTransform="translate(1503.8 -345.07) rotate(128.23)" xlink:href="#radial-gradient-13"/><radialGradient id="radial-gradient-66" cx="837.94" cy="199.94" r="28.88" gradientTransform="translate(1503.8 -345.07) rotate(128.23)" xlink:href="#radial-gradient-13"/><radialGradient id="radial-gradient-67" cx="857.53" cy="205.67" r="27.22" gradientTransform="matrix(-0.59, -0.78, 0.8, -0.6, 1153.08, 989.02)" xlink:href="#radial-gradient-13"/><radialGradient id="radial-gradient-68" cx="832.37" cy="197.21" r="22.15" gradientTransform="matrix(-0.72, 0.91, -1.08, -0.85, 1635.4, -415.56)" xlink:href="#radial-gradient-13"/><radialGradient id="radial-gradient-69" cx="827.03" cy="185.48" r="32.73" gradientTransform="translate(1503.8 -345.07) rotate(128.23)" xlink:href="#radial-gradient-13"/><radialGradient id="radial-gradient-70" cx="966.46" cy="115.4" r="32.73" xlink:href="#radial-gradient-13"/><radialGradient id="radial-gradient-71" cx="949.91" cy="79.73" r="38.11" gradientTransform="translate(128.08 30.17) scale(0.84 0.83)" xlink:href="#radial-gradient-13"/><radialGradient id="radial-gradient-72" cx="949.83" cy="125.8" r="27.89" xlink:href="#radial-gradient-13"/><radialGradient id="radial-gradient-73" cx="983.26" cy="100.44" r="32.25" xlink:href="#radial-gradient-13"/><radialGradient id="radial-gradient-74" cx="1040.83" cy="74.36" r="38.11" gradientTransform="translate(128.08 30.17) scale(0.84 0.83)" xlink:href="#radial-gradient-13"/><radialGradient id="radial-gradient-75" cx="969.46" cy="100.42" r="32.73" xlink:href="#radial-gradient-13"/><linearGradient id="linear-gradient-51" x1="259.87" y1="197.33" x2="182.35" y2="1024.17" gradientUnits="userSpaceOnUse"><stop offset="0.06" stop-color="#f5f3f0"/><stop offset="0.08" stop-color="#e9e7e6"/><stop offset="0.15" stop-color="#a6a7af"/><stop offset="0.22" stop-color="#6e7181"/><stop offset="0.28" stop-color="#43475d"/><stop offset="0.34" stop-color="#242943"/><stop offset="0.39" stop-color="#111734"/><stop offset="0.42" stop-color="#0a102e"/><stop offset="0.72" stop-color="#0c162b"/></linearGradient><linearGradient id="linear-gradient-52" x1="644.18" y1="-730.17" x2="-38.63" y2="1166.42" gradientUnits="userSpaceOnUse"><stop offset="0.07"/><stop offset="0.15" stop-color="#000101"/><stop offset="0.87" stop-color="#020405"/></linearGradient><linearGradient id="linear-gradient-53" x1="362" y1="-92.32" x2="5.15" y2="898.87" xlink:href="#linear-gradient-52"/><linearGradient id="linear-gradient-54" x1="304.65" y1="105.49" x2="90.42" y2="700.52" xlink:href="#linear-gradient-24"/><linearGradient id="linear-gradient-55" x1="509.19" y1="177.97" x2="301.36" y2="755.25" xlink:href="#linear-gradient-24"/></defs><title>Japan - mt. fuji night </title><g id="bacgkround"><g id="sky"><rect x="-15.67" y="-11" width="1095" height="622" style="fill:url(#linear-gradient)"/></g><g id="water"><rect x="-38.67" y="473" width="1135" height="147" style="fill:url(#linear-gradient-2)"/><path d="M285.33,478c-21.88,2.74-100.22,12.77-100,24,.38,18.78,220.3,26.9,220,34-.27,6.64-192.6.22-193,7-.4,7,203.78,27.89,434,39,244.37,11.79,443.68,9,444,1s-192.86-15.73-193-33c-.15-19.13,236.84-18.35,238-41C1137.08,474.8,598.53,438.81,285.33,478Z" style="fill:url(#linear-gradient-3)"/><path d="M510.33,505c-86.14,1.77-208.95,4.3-209,9-.05,5.06,142.36,13.46,795,28V512C952.51,505.49,752.14,500,510.33,505Z" style="fill:url(#linear-gradient-4)"/><path d="M127.33,611q-.18-15.76,977-43-8.49,31.5-17,63Q127.5,626.62,127.33,611Z" style="opacity:0.5700000000000001;fill:url(#linear-gradient-5)"/><path d="M-15.67,469l1101,4c-148.29,7.19-181,12.94-181,17,0,9.39,175.06,14.78,175,17-.1,4-572.77-10.35-1088-24Z" style="fill:url(#linear-gradient-6)"/><path d="M.33,522c291.38-1.08,315.06-.36,348,1,29.29,1.21,181.09,7.5,181,13-.09,6-182.83,5-183,12-.2,8.24,254.12,16.4,254,23-.19,10.74-674.87,7.55-675-3,0-4.82,141-8.72,141-19,0-10-132.29-17.07-132-23C-65.49,522.32-14.36,522.05.33,522Z" style="fill:url(#linear-gradient-7)"/><path d="M505.33,470c-58.22,11.26-76.32,16.63-76,19,.64,4.61,70.92-3.32,73,7,1.27,6.27-23.87,13-23,19,2.22,15.24,168.63,2.64,169,7,.3,3.49-106.08,12.1-106,22,.1,10.55,121,14.27,121,23,0,9.6-146.05,14.81-146,19,.07,5.68,268.11,7.06,557,7q-8-59.5-16-119Z" style="fill:url(#linear-gradient-8)"/><path d="M405.33,526h99a127.5,127.5,0,0,0-99,0Z" style="fill:url(#linear-gradient-9)"/><path d="M500.33,543h104a189.85,189.85,0,0,0-104,0Z" style="fill:url(#linear-gradient-10)"/><path d="M434.33,569H534.58a160.54,160.54,0,0,0-100.25,0Z" style="fill:url(#linear-gradient-11)"/><path d="M572.33,567a99.94,99.94,0,0,1,18-7c30.46-8.54,57.58-.3,71,5Z" style="fill:url(#linear-gradient-12)"/><path d="M491.33,471a380.27,380.27,0,0,0-75,17c96.31-.58,207.87-.41,208,4,.12,3.68-77.13,8.45-77,12,.21,5.34,225.56-4.2,227,11,.9,9.41-84.67,21.29-84,28,.84,8.44,137.3,3.62,435-17l-289-57c-111.34,16.33-184,12.53-231.06,5.17C589.66,471.73,547,464.22,491.33,471Z" style="fill:url(#linear-gradient-13)"/><path d="M227.33,483c95.43,3.64,132.94,7.75,133,12,.1,6.88-98.07,11.75-98,19,.07,6.56,95.94,7.84,96,12,.13,8.17-397.19,29.09-399,10C-41.6,526.2,61.85,507.17,227.33,483Z" style="fill:url(#linear-gradient-14)"/></g><g id="moon"><circle cx="117.83" cy="134.5" r="51.5" style="fill:#fffcee"/><circle cx="106.33" cy="114" r="13" style="fill:#eae6d8"/><circle cx="95.33" cy="150" r="10" style="fill:#eae6d8"/><circle cx="121.33" cy="174" r="6" style="fill:#eae6d8"/></g><g id="clouds"><path d="M-35.67,272a52.34,52.34,0,0,1,61-21,52.35,52.35,0,0,1,34,57c6.94-9.16,17.65-14.38,28-13,14.63,1.94,26.86,16.8,26,35,2.66-3.59,21-27.52,54-30,29.85-2.24,50.18,14.69,54,18,15-35.46,33.52-44.24,42-47,44.18-14.36,114.28,37.5,162,139l-446,20Z" style="fill:#0b1728"/><path d="M735.33,422c-8.81-9.9-70.89-81.55-48-151,1.77-5.37,18.68-56.67,52-58,18-.72,32.24,13.48,38,20,4.12-3.25,22.33-16.85,47-14,24.2,2.8,45.13,20.34,54,45,11.72-16,32.22-21.45,48-14,11.93,5.63,19.85,18,21,32,6.55-33.56,31.31-57.7,59-60,22.12-1.84,38.93,10.85,44,15,17.69-36.52,32.66-39,38-39,24.28-.2,48.93,47.42,63,120Z" style="fill:#0b1728"/></g><g id="Layer_14" data-name="Layer 14"><circle cx="168.33" cy="18" r="2" style="fill:#fffcee;opacity:0.72"/><circle cx="247.83" cy="99.5" r="2.5" style="fill:#fffcee;opacity:0.72"/><circle cx="407.83" cy="30.5" r="1.5" style="fill:#fffcee;opacity:0.72"/><circle cx="450.83" cy="66.5" r="1.5" style="fill:#fffcee;opacity:0.72"/><circle cx="407.33" cy="123" r="1" style="fill:#fffcee;opacity:0.72"/><circle cx="505.33" cy="53" r="1" style="fill:#fffcee;opacity:0.72"/><ellipse cx="15.23" cy="47.36" rx="1.9" ry="1.64" style="fill:#fffcee;opacity:0.72"/><circle cx="24.33" cy="115" r="1" style="fill:#fffcee;opacity:0.72"/><ellipse cx="57.03" cy="27.64" rx="1.9" ry="1.64" style="fill:#fffcee;opacity:0.72"/><ellipse cx="105.96" cy="45.3" rx="2.37" ry="2.05" style="fill:#fffcee;opacity:0.72"/><circle cx="210.33" cy="80" r="2" style="fill:#fffcee;opacity:0.72"/><circle cx="33.83" cy="177.5" r="1.5" style="fill:#fffcee;opacity:0.72"/><circle cx="155.83" cy="63.5" r="1.5" style="fill:#fffcee;opacity:0.72"/><circle cx="616.33" cy="29" r="1" style="fill:#fffcee;opacity:0.72"/><circle cx="640.33" cy="50" r="2" style="fill:#fffcee;opacity:0.72"/><circle cx="784.33" cy="22" r="4" style="fill:#fffcee;opacity:0.72"/><circle cx="840.33" cy="58" r="3" style="fill:#fffcee;opacity:0.72"/><circle cx="929.33" cy="20" r="2" style="fill:#fffcee;opacity:0.72"/></g><g id="cloud"><path d="M232.33,79.11c60.25-1.67,83.18-1.4,83.26,0,.1,1.85-39.73,5-39.65,6.23.11,1.59,64.62-1.16,162-6.23a53.72,53.72,0,0,0-18.69-13.59c-19.19-8.3-37.18-2.31-41.91-.56-3.12-2.91-15.58-13.82-34.55-14.16a51.86,51.86,0,0,0-28.31,7.93C313.53,57.38,304,44,287.84,44c-1.76,0-13.52.19-21,8.5-5,5.57-3.51,9.74-7.36,15.29C256.21,72.56,249.17,78,232.33,79.11Z" style="fill:#020c16"/><path d="M728.33,129q.55,10.13,209,9-51.33-9.44-51-12,.39-2.91,67,3c9.49-15.4,3-32.88-7-37-9.07-3.74-23.94,2.32-30,17,.71-9.73-5.68-18.21-14-20-9.79-2.11-20.68,5.39-22,17q18.46-47.61,10-53-10.35-6.6-61,50c-1-10.71-7.86-19.28-16-21-11-2.33-25,7.72-26,24-2.93-9.58-11.6-16.08-21-16-11.25.09-18.93,9.57-21,18a24,24,0,0,0,1,14Q728.17,126,728.33,129Z" style="fill:#020c16"/></g></g><g id="foreground_details" data-name="foreground details"><g id="Mt_fuji" data-name="Mt fuji"><path d="M-18.67,472l102-97c91.8-34.5,157.75-73.1,202-103,26.3-17.77,62.69-44.47,122-88,35.55-26.09,64.85-47.91,85-63l22,2,24-11,34,8,30-16,63,67,272,182,159,120Z" style="fill:url(#linear-gradient-15)"/><path d="M420.33,175c-14.08,40.59-12.8,53.08-8,56,10,6.08,38.38-27.68,48-21,8,5.57-5.29,33.42,1,37,8.24,4.69,31.75-42.59,59-40,21,2,34.79,32.57,41,29,4.45-2.55-2.63-18.2,3-22,4.61-3.11,13.1,4.79,25,11,22.84,11.91,52.66,14.67,58,6s-17-24.86-12-36c4.58-10.3,29.59-9.82,57-6l-27-18-63-67-31,16-33-8-24,11-22-2Z" style="fill:#5a7184;opacity:0.54"/><path d="M492.33,121q8,8,16,16,5.13,12.47,7,12,2.59-.65-1-26Z" style="opacity:0.13;fill:url(#linear-gradient-16)"/><path d="M537.33,113l12,16,14,22q4-15.5,8-31Z" style="opacity:0.07;fill:url(#linear-gradient-17)"/><path d="M602.33,104a201.39,201.39,0,0,0,29,51c10.39,13.25,22.48,25.16,52,47,51.13,37.82,90.49,58.05,89,61-1.39,2.77-36.3-14.13-38-11-2.08,3.86,48.69,33.93,115,77,69.29,45,69.5,48.32,108,72a1171.15,1171.15,0,0,0,146,76c-14.37-10.24-36-25.76-62-45-55-40.68-61.75-47.62-98-74-23.36-17-53.91-37.34-115-78-30-20-59.9-40.14-90-60-43-28.35-58.16-38-79-56A426.78,426.78,0,0,1,602.33,104Z" style="opacity:0.1;fill:url(#linear-gradient-18)"/><path d="M513.33,301c-2.56,10.83-5.92,26.25-9,45-3,18.35-5.55,38.69-4,39s6.46-23.35,9-23c4.32.6-3.78,69.63-1,70,2.26.3,11.49-44.51,15-96,.29-4.26,3.89-58.36-1-59C519.88,276.68,516.09,290,513.33,301Z" style="opacity:0.59;fill:url(#linear-gradient-19)"/><path d="M473.33,242s7.72-8.81,18-22c18.38-23.56,24.57-42,27-41,1.9.74-.4,12.5-4,22-6.09,16.12-16.05,26.14-23,33-13.11,12.94-28,22.15-29,21C461.81,254.38,465.49,251,473.33,242Z" style="opacity:0.07;fill:url(#linear-gradient-20)"/><path d="M554.33,194a200.82,200.82,0,0,0,7,42,203.7,203.7,0,0,0,37,72l-18-50q15.64,15.78,18,14Q603.09,268.42,554.33,194Z" style="opacity:0.12;fill:url(#linear-gradient-21)"/><path d="M623.33,311c29,68.21,38.4,86.62,40,86,2-.76-9-30.09-5-32,7-3.33,51.12,80.85,57,78,2.36-1.14-2.38-15.73-6-26l63,56c-33.81-40.22-61.05-73.58-80-97-39.51-48.86-66.93-84.23-72-81C618.18,296.37,620.73,304.29,623.33,311Z" style="opacity:0.59;fill:url(#linear-gradient-22)"/><path d="M675.33,267a791.58,791.58,0,0,0,42,68,796.9,796.9,0,0,0,121,138h117l-143-107,31,56Z" style="opacity:0.59;fill:url(#linear-gradient-23)"/><path d="M80.33,378c13.3-5.47,31.55-13.2,53-23,20.15-9.21,61.07-28,103-52,31.87-18.27,62.35-40.09,122-83,27.27-19.61,58.92-42.73,94-69-23.66,22.87-50.6,46.86-81,71a1111.94,1111.94,0,0,1-94,67l72-21-253,119-115,91Z" style="opacity:0.25;fill:url(#linear-gradient-24)"/><path d="M383.33,257q-34,26.44-68,53-25.53,20-51,40a436.44,436.44,0,0,0,47-29A438,438,0,0,0,383.33,257Z" style="opacity:0.25;fill:url(#linear-gradient-25)"/><path d="M219.33,399c10.28-5.48,25.68-13.94,44-25,36.5-22,53-35.28,55-33,3.5,4-41.21,50.52-43,49-.57-.49,3.1-6.05,13-19Z" style="opacity:0.25;fill:url(#linear-gradient-26)"/><path d="M439.33,252c-4.29,8.18-10.92,20.15-20,34-23.52,35.88-46.13,57.9-45,59,.6.58,7.57-4.88,37-33q-3.58,18.54-2,19Q412.72,332,439.33,252Z" style="opacity:0.08;fill:url(#linear-gradient-27)"/><path d="M229.33,466c8.25-7.64,20.79-18.72,37-31,13.42-10.16,19.34-13.55,36-25,35.43-24.34,59.34-43.83,60-43,.82,1-35.64,28.93-33,33,2.51,3.87,41.5-17.91,42-17C372,384.17,307.76,421.26,229.33,466Z" style="opacity:0.08;fill:url(#linear-gradient-28)"/></g><g id="mountain"><path d="M464.33,476,635,399l159.65-6,70.46-57,92.49-7,121.12-25,17.61,186Z" style="fill:url(#linear-gradient-29)"/><path d="M548.33,478l170.15,3.61L1066.33,489q4-61.5,8-123l-115,28-104,7-195,21Z" style="opacity:0.18;fill:url(#linear-gradient-30)"/><path d="M676.33,481l182-82,97-65,140,20q-4,65.51-8,131Z" style="opacity:0.16;fill:url(#linear-gradient-31)"/><path d="M471.33,473l164-74,40,19Z" style="opacity:0.17;fill:url(#linear-gradient-32)"/><path d="M865.33,336l-71,57,64,6Q861.84,367.5,865.33,336Z" style="opacity:0.17;fill:url(#linear-gradient-33)"/><path d="M957.33,329l121-25,9,30Z" style="fill:url(#linear-gradient-34)"/></g><g id="mountain-2" data-name="mountain"><path d="M635.33,501l104-56,130-25,116-58,100,7,66-17q6.51,80.51,13,161l-367,28,43-36Z" style="fill:url(#linear-gradient-35)"/><path d="M638.33,501l168-25,96-11-58,36-4,4Z" style="opacity:0.18;fill:url(#linear-gradient-36)"/><path d="M797.33,541l54-32,104-48,118,56Z" style="opacity:0.18;fill:url(#linear-gradient-37)"/><path d="M837.33,538l118-77,31-56,40-29,53,7V524Z" style="opacity:0.18;fill:url(#linear-gradient-38)"/><path d="M637.33,500l102-55,130-25-92,46Z" style="opacity:0.25;fill:url(#linear-gradient-39)"/><path d="M869.33,420l116-58,41,14-149,70,32-36Z" style="opacity:0.25;fill:url(#linear-gradient-40)"/><path d="M797.33,541l47-40,60-37,56-5-109,50Z" style="opacity:0.25;fill:url(#linear-gradient-41)"/></g><g id="mountain-3" data-name="mountain"><path d="M-26.67,323l53,33,92,30,72,62,75,27,79,27-226,2,75,21-209-3Q-21.16,422.51-26.67,323Z" style="fill:url(#linear-gradient-42)"/><path d="M-29.67,411l30-17,29,52,52,33a87.25,87.25,0,0,0,28,38l80,7-225-2Z" style="opacity:0.18;fill:url(#linear-gradient-43)"/><path d="M118.33,504q-21.49-27.5-43-55l93,18-17-16,38,21,155,30Z" style="opacity:0.19;fill:url(#linear-gradient-44)"/><path d="M-15.67,366l65,50,69,88,191-1-120-16-112-106-55-6Z" style="opacity:0.18;fill:url(#linear-gradient-45)"/><path d="M-15.67,330q20.51,22,41,44l93,12-90-29Z" style="opacity:0.25;fill:url(#linear-gradient-46)"/><path d="M190.33,448q-.5,12-1,24l155,30Z" style="opacity:0.25;fill:url(#linear-gradient-47)"/><path d="M88.33,495l30,9,73,20-82-7Z" style="opacity:0.25;fill:url(#linear-gradient-48)"/><path d="M33.33,428q-2,9-4,18l55,35Z" style="opacity:0.25;fill:url(#linear-gradient-49)"/></g><g id="Sakura"><path d="M1286.06-136.92Q1267.51-97,1248.94-57L1173.73-2l-129.8,31.45L956,105.33,773.34,94.09l-64.64,32-44.73-14-61.43,7.49L664,115.07l42.18,12.24L640,160l134.84-56.94,170.82,11.2L923,133.89,754.13,218.21l-103.58,83-91.42-16.72,90.37,27.58L764.32,224l162.56-77.08,122.31-97.11,109.28-26.7-31.63,59.67-76.24,82.55-147,95.54L727.12,328.28l175.73-55.12,93.57-57.53q-13.56,27.24-27.11,54.46l-92.6,76.42-57.32,19.67,31.07-7.25L825,380.37q-54.57,27.51-54.22,28.24t56.24-25.56l28.82-25.39,24.86-5.8,48.52-40q-5.85,16.64-11.68,33.27-13.17,15.36-26.35,30.73l-44.57,31,48.06-28.63,27.55-32.48,11.52-37.68,39.55-32.63L1028,196.24l26.81-16.49,85-76.53q30-49.21,60-98.42l97.54-55.44Q1291.69-93.78,1286.06-136.92Z" style="fill:url(#linear-gradient-50)"/><path d="M598.46,358.35c-5.07-.11-9.93,12.16-6.92,15.1,2,2,8.12.16,14.47-4.41C604.68,362.9,601.48,358.41,598.46,358.35Z" style="fill:url(#radial-gradient)"/><path d="M630.7,346c-3.49.47-5.83,17-2.47,18.52,1.9.86,6.31-2.78,7.41-7.41C637,351.37,632.85,345.72,630.7,346Z" style="fill:url(#radial-gradient-2)"/><path d="M536.87,217.61c.37,3.46,16.22,6.42,18.52,2.47,1.15-2-1.08-5.72-3.7-7.41C545.74,208.86,536.59,214.87,536.87,217.61Z" style="fill:url(#radial-gradient-3)"/><path d="M628.23,250.94c-2.53-3.26,8.63-18.76,13.58-17.28,2.54.77,3.59,6.07,2.47,9.88C642,251.43,630.15,253.42,628.23,250.94Z" style="fill:url(#radial-gradient-4)"/><path d="M460.34,426.25c-.28,2.7,5.57,6.33,11.11,6.17,8.07-.24,13.66-8.49,12.34-11.11C481.76,417.28,460.84,421.34,460.34,426.25Z" style="fill:url(#radial-gradient-5)"/><path d="M564,450.94c-2.12,3.36,3.19,13,8.65,12.34,3.91-.45,7.48-6.12,6.17-9.88C577,448.19,566.15,447.59,564,450.94Z" style="fill:url(#radial-gradient-6)"/><path d="M667.73,415.13c-5.21-2.67-11.85-1-12.34,1.24-.86,3.85,15.83,12.72,18.52,9.88C675.48,424.57,673.14,417.91,667.73,415.13Z" style="fill:url(#radial-gradient-7)"/><path d="M860.32,212.67c-2.15,3.9,1.1,11.16,6.17,13.58,8.91,4.27,21-7.55,19.75-12.34C884.81,208.39,864.07,205.85,860.32,212.67Z" style="fill:url(#radial-gradient-8)"/><path d="M988.71,334.89c-6.47.93-12.4,17.81-6.18,23.46,4.5,4.08,15.33,2.28,18.52-3.71C1005.27,346.73,994.79,334,988.71,334.89Z" style="fill:url(#radial-gradient-9)"/><path d="M781.31,484.27c-9.17,1.22-12.67,13.69-9.88,17.28,3.71,4.75,22.71-.67,23.46-7.41C795.37,489.82,788.52,483.31,781.31,484.27Z" style="fill:url(#radial-gradient-10)"/><path d="M688.72,521.3c-5.12-3.27-21.23,8.38-19.75,13.58,1.07,3.78,12.4,7.56,18.52,1.24C692,531.48,691.83,523.29,688.72,521.3Z" style="fill:url(#radial-gradient-11)"/><path d="M927,485.5c-9.58-3.05-39.36,47.52-32.1,54.32,4.14,3.87,22.42-4.42,30.87-19.75C933.51,506,932.28,487.19,927,485.5Z" style="fill:url(#radial-gradient-12)"/><path d="M689.15,111.28a8.86,8.86,0,0,0-2.37-.73c.31-.21.59-.43.83-.63a6,6,0,1,0-7.7-9.18,7.82,7.82,0,0,0-1.08,1.17c0-.27,0-.52,0-.75a6,6,0,1,0-11.95.85,9,9,0,0,0,.65,2.55,15,15,0,0,0-1.51-.92,6,6,0,0,0-5.47,10.66,13,13,0,0,0,5.19,1,17.65,17.65,0,0,0-3,2,6,6,0,0,0,7.7,9.19,8.2,8.2,0,0,0,1.19-1.31,6,6,0,0,0,11.9-1.3,9,9,0,0,0-.59-2.38c.31.19.6.36.87.5a6,6,0,0,0,5.41-10.69Z" style="fill:url(#radial-gradient-13)"/><path d="M691.35,121.54a9.6,9.6,0,0,1-2-4.82c-.22-2.15.14-6.27,2.84-7.37s6.9,1.51,7.65,4.82a7,7,0,0,1-1.41,5.39,7.8,7.8,0,0,1-4,2.83c-.11-.16,3.26-3.56,7.65-4,1.31-.12,3.73-.35,4.82,1.14s.36,3.81-.57,5.1c-1.84,2.58-6.26,3.27-11,1.7a9.39,9.39,0,0,1,5.67,3.12c.77.94,2.27,2.74,1.7,4.82a4.72,4.72,0,0,1-3.69,3.12c-2.69.49-4.77-1.64-5.38-2.27-2.91-3-2.37-7.25-2.27-7.94a10.19,10.19,0,0,1-.85,7.37c-.54.95-1.62,2.84-3.41,3.12-2.73.44-6.45-3-6.23-6.8.18-3.25,3.19-6.15,7.08-6.24a6.77,6.77,0,0,1-7.65.57,5.93,5.93,0,0,1-2.84-4.82c0-3.34,3.4-6.24,6.81-6.24S691.13,117.31,691.35,121.54Z" style="fill:url(#radial-gradient-14)"/><path d="M718.35,122.2a6.54,6.54,0,0,0-1.76-.54c.23-.16.43-.32.61-.47a4.44,4.44,0,1,0-5.7-6.8,5.79,5.79,0,0,0-.81.87c0-.2,0-.39,0-.56a4.44,4.44,0,0,0-8.86.63,6.69,6.69,0,0,0,.49,1.89,9.88,9.88,0,0,0-1.12-.68,4.44,4.44,0,1,0-4.06,7.89,9.61,9.61,0,0,0,3.85.76,12.55,12.55,0,0,0-2.25,1.45,4.44,4.44,0,0,0,5.7,6.8,5.67,5.67,0,0,0,.88-1,4.44,4.44,0,0,0,8.82-1,6.54,6.54,0,0,0-.44-1.76c.23.14.45.26.65.36a4.43,4.43,0,0,0,4-7.91Z" style="fill:url(#radial-gradient-15)"/><path d="M640.9,114.31a14.22,14.22,0,0,0-7,5.88c-.85,1.48-2.1,3.65-1.47,6.25s2.9,5,5.52,5.15c4.38.32,7-5.78,7.35-6.62a13.62,13.62,0,0,0,.74-8.09c-1.24,3.44-.36,7,1.84,8.46,3.2,2.17,7.71-1,9.56-2.94.82-.87,2.69-2.84,2.2-4.78-.54-2.15-3.81-3.79-8.09-3.31.6.27,4.75,2.1,8.46,0,.71-.4,2.9-1.65,3.31-4a5.83,5.83,0,0,0-2.58-5.51c-2.82-1.85-7.86-.64-11.76,3.67.31-.21,3.55-2.53,3.31-5.88-.15-2-1.45-3.3-2.58-4.41-2.33-2.32-6.81-5-8.82-3.68s-1.55,6.64,1.47,12.87c-.82-3.67-3.27-6.4-5.88-6.62-3.9-.33-7.08,5-7,9.19a6.49,6.49,0,0,0,1.84,4.78C633.51,116.62,637.42,116.59,640.9,114.31Z" style="fill:url(#radial-gradient-16)"/><path d="M695.5,139.28a9.48,9.48,0,0,0-4.64,4,5.74,5.74,0,0,0-1,4.24,4.51,4.51,0,0,0,3.65,3.5c2.91.22,4.64-3.92,4.88-4.49a9.48,9.48,0,0,0,.49-5.5c-.82,2.34-.24,4.73,1.22,5.74,2.13,1.48,5.12-.68,6.34-2,.55-.59,1.79-1.92,1.46-3.25s-2.52-2.57-5.36-2.25a6.34,6.34,0,0,0,5.61,0,4.12,4.12,0,0,0,2.19-2.74,4,4,0,0,0-1.7-3.75c-1.88-1.25-5.22-.43-7.81,2.5.21-.15,2.36-1.72,2.2-4a4.79,4.79,0,0,0-1.71-3c-1.55-1.58-4.52-3.41-5.85-2.5s-1,4.51,1,8.74c-.54-2.5-2.17-4.34-3.9-4.49-2.59-.23-4.69,3.41-4.63,6.24a4.45,4.45,0,0,0,1.21,3.24C690.59,140.85,693.19,140.84,695.5,139.28Z" style="fill:url(#radial-gradient-17)"/><path d="M931.88,90.3a9.08,9.08,0,0,0-2.38-.72c.31-.22.59-.43.83-.63a6,6,0,1,0-7.7-9.18,6.94,6.94,0,0,0-1.08,1.17c0-.27,0-.53,0-.76a6,6,0,1,0-11.95.85,9.51,9.51,0,0,0,.65,2.56,12,12,0,0,0-1.51-.92,6,6,0,1,0-5.47,10.65,13,13,0,0,0,5.19,1,16.59,16.59,0,0,0-3,2,6,6,0,1,0,7.69,9.18,8.2,8.2,0,0,0,1.19-1.31,6,6,0,0,0,11.9-1.29,9,9,0,0,0-.59-2.38c.31.19.6.35.87.49a6,6,0,0,0,5.42-10.69Z" style="fill:url(#radial-gradient-18)"/><path d="M934.07,100.56a9.56,9.56,0,0,1-2-4.82c-.22-2.14.14-6.27,2.84-7.37s6.9,1.51,7.65,4.82a6.93,6.93,0,0,1-1.41,5.39,7.8,7.8,0,0,1-4,2.83c-.11-.15,3.26-3.55,7.65-4,1.31-.13,3.73-.35,4.82,1.13s.36,3.81-.56,5.1c-1.85,2.58-6.27,3.28-11.06,1.7a9.39,9.39,0,0,1,5.67,3.12c.78.94,2.27,2.75,1.7,4.82a4.68,4.68,0,0,1-3.69,3.12c-2.69.5-4.77-1.64-5.38-2.27-2.91-3-2.37-7.25-2.27-7.94a10.16,10.16,0,0,1-.85,7.38c-.54.94-1.62,2.83-3.4,3.12-2.74.43-6.46-3-6.24-6.81.18-3.25,3.19-6.15,7.09-6.24a6.77,6.77,0,0,1-7.66.57,5.93,5.93,0,0,1-2.84-4.82c0-3.33,3.4-6.24,6.81-6.24S933.85,96.34,934.07,100.56Z" style="fill:url(#radial-gradient-19)"/><path d="M961.07,101.22a6.92,6.92,0,0,0-1.76-.54c.23-.16.43-.32.61-.47a4.44,4.44,0,1,0-5.7-6.8,5.77,5.77,0,0,0-.8.87c0-.2,0-.39,0-.56a4.44,4.44,0,0,0-8.86.63,7,7,0,0,0,.49,1.89,12.47,12.47,0,0,0-1.12-.68,4.44,4.44,0,1,0-4,7.9,9.54,9.54,0,0,0,3.84.75,13.12,13.12,0,0,0-2.25,1.45,4.44,4.44,0,0,0,5.7,6.8,5.31,5.31,0,0,0,.88-1,4.44,4.44,0,0,0,8.82-.95,6.52,6.52,0,0,0-.44-1.77c.23.14.45.27.65.37a4.44,4.44,0,0,0,4-7.92Z" style="fill:url(#radial-gradient-20)"/><path d="M938.22,118.31a9.44,9.44,0,0,0-4.64,4,5.8,5.8,0,0,0-1,4.25,4.51,4.51,0,0,0,3.66,3.49c2.9.22,4.63-3.92,4.87-4.49a9.45,9.45,0,0,0,.49-5.49c-.82,2.33-.24,4.73,1.22,5.74,2.13,1.47,5.12-.69,6.34-2,.55-.59,1.79-1.92,1.47-3.24s-2.53-2.57-5.37-2.25a6.34,6.34,0,0,0,5.61,0,4.12,4.12,0,0,0,2.19-2.75,4,4,0,0,0-1.7-3.74c-1.88-1.26-5.22-.43-7.81,2.49.21-.14,2.36-1.72,2.2-4a4.81,4.81,0,0,0-1.71-3c-1.55-1.58-4.52-3.41-5.85-2.49s-1,4.5,1,8.73c-.54-2.49-2.17-4.34-3.9-4.49-2.58-.22-4.69,3.41-4.63,6.24a4.46,4.46,0,0,0,1.22,3.25C933.31,119.88,935.91,119.86,938.22,118.31Z" style="fill:url(#radial-gradient-21)"/><path d="M915,109.29a5.15,5.15,0,0,0-1.56-.57c.2-.17.39-.33.55-.49a5.25,5.25,0,0,0,.48-6.56,3.55,3.55,0,0,0-5.56-.58,6,6,0,0,0-.71.91c0-.2,0-.4,0-.58-.16-2.57-2-4.5-4.22-4.32s-3.81,2.41-3.66,5a8.75,8.75,0,0,0,.43,2,8.36,8.36,0,0,0-1-.72c-1.94-1.17-4.32-.27-5.32,2a5.09,5.09,0,0,0,1.71,6.27,7.44,7.44,0,0,0,3.42.79,11.68,11.68,0,0,0-2,1.52,5.25,5.25,0,0,0-.49,6.56,3.55,3.55,0,0,0,5.56.58,6.14,6.14,0,0,0,.79-1c.29,2.4,2.11,4.15,4.19,4s3.81-2.42,3.65-5a7.68,7.68,0,0,0-.39-1.85l.58.38c1.94,1.16,4.32.24,5.3-2A5.07,5.07,0,0,0,915,109.29Z" style="fill:url(#radial-gradient-22)"/><path d="M875.64,105.06a9.52,9.52,0,0,1-2-4.82c-.22-2.15.14-6.27,2.84-7.37s6.89,1.51,7.65,4.82a6.87,6.87,0,0,1-1.42,5.38,7.81,7.81,0,0,1-4,2.84c-.1-.16,3.27-3.56,7.66-4,1.3-.12,3.72-.35,4.82,1.13s.36,3.82-.57,5.11c-1.84,2.58-6.26,3.27-11.06,1.7a9.41,9.41,0,0,1,5.68,3.12c.77.94,2.27,2.74,1.7,4.82a4.72,4.72,0,0,1-3.69,3.12c-2.69.49-4.78-1.65-5.39-2.27-2.9-3-2.36-7.25-2.26-7.94a10.15,10.15,0,0,1-.86,7.37c-.53,1-1.61,2.84-3.4,3.12-2.73.43-6.45-3-6.24-6.8.19-3.25,3.2-6.15,7.09-6.24a6.75,6.75,0,0,1-7.65.56,5.9,5.9,0,0,1-2.84-4.82c0-3.33,3.39-6.23,6.81-6.23S875.42,100.83,875.64,105.06Z" style="fill:url(#radial-gradient-23)"/><path d="M800.72,88.58a9.52,9.52,0,0,1-2-4.82c-.23-2.15.14-6.27,2.83-7.37s6.9,1.51,7.66,4.82a6.91,6.91,0,0,1-1.42,5.38,7.88,7.88,0,0,1-4,2.84c-.1-.16,3.26-3.56,7.66-4,1.3-.12,3.72-.35,4.82,1.13s.35,3.82-.57,5.11c-1.85,2.58-6.26,3.27-11.06,1.7a9.39,9.39,0,0,1,5.67,3.12c.78.94,2.27,2.74,1.7,4.82a4.72,4.72,0,0,1-3.68,3.12c-2.69.49-4.78-1.65-5.39-2.27-2.91-3-2.37-7.25-2.27-7.94a10.14,10.14,0,0,1-.85,7.37c-.54.95-1.61,2.84-3.4,3.12-2.74.43-6.45-3-6.24-6.81.18-3.24,3.2-6.14,7.09-6.23a6.77,6.77,0,0,1-7.66.56,5.89,5.89,0,0,1-2.83-4.82c0-3.33,3.39-6.23,6.8-6.23C797.19,81.2,800.5,84.35,800.72,88.58Z" style="fill:url(#radial-gradient-24)"/><path d="M810.88,108.58a11.29,11.29,0,0,0-5.56,4.65,6.55,6.55,0,0,0-1.17,5,5.34,5.34,0,0,0,4.39,4.07c3.48.25,5.56-4.57,5.85-5.24a10.63,10.63,0,0,0,.58-6.39c-1,2.72-.28,5.51,1.47,6.68,2.55,1.72,6.14-.79,7.61-2.32.65-.69,2.14-2.24,1.75-3.78-.43-1.7-3-3-6.44-2.62.48.22,3.78,1.66,6.73,0a4.85,4.85,0,0,0,2.64-3.2,4.61,4.61,0,0,0-2.05-4.36c-2.25-1.46-6.26-.5-9.36,2.91.24-.17,2.82-2,2.63-4.65a5.54,5.54,0,0,0-2.05-3.49c-1.86-1.84-5.42-4-7-2.91s-1.24,5.25,1.17,10.18c-.66-2.91-2.61-5.06-4.68-5.24-3.11-.26-5.64,4-5.57,7.27a5.15,5.15,0,0,0,1.47,3.78C805,110.41,808.11,110.39,810.88,108.58Z" style="fill:url(#radial-gradient-25)"/><path d="M786.25,97.41a10.4,10.4,0,0,1-2.74-5.48c-.18-1.23-.56-3.81.92-4.88,1.28-.92,3.39-.28,4.56.61,2.19,1.67,2.71,5.46,1.22,9.44,1.24-6,2.74-6.64,3.35-6.7,2.35-.22,6.67,6.14,4.26,10-1.68,2.74-5.72,2.75-6.09,2.74a9.33,9.33,0,0,1,3.35,4,5.9,5.9,0,0,1,.61,4.26c-.82,2.53-4.29,4.42-6.7,3.35s-3.73-5.07-1.52-8.52c-1.13,4.75-3.44,7.8-5.17,7.61-2-.23-4.33-5-2.44-8.22a6.33,6.33,0,0,1,4.57-2.74,5.59,5.59,0,0,1-2.74,0,5,5,0,0,1-3.05-2.13c-1.06-1.88-.64-5,1.52-6.09A4.55,4.55,0,0,1,786.25,97.41Z" style="fill:url(#radial-gradient-26)"/><path d="M982,209.94a9.52,9.52,0,0,1-2-4.82c-.23-2.15.14-6.27,2.83-7.37s6.9,1.51,7.66,4.82A6.91,6.91,0,0,1,989.1,208a7.81,7.81,0,0,1-4,2.84c-.1-.16,3.27-3.56,7.66-4,1.3-.12,3.72-.35,4.82,1.13s.35,3.82-.57,5.11c-1.84,2.58-6.26,3.27-11.06,1.7a9.37,9.37,0,0,1,5.67,3.12c.78.94,2.27,2.74,1.7,4.82a4.69,4.69,0,0,1-3.68,3.12c-2.69.49-4.78-1.65-5.39-2.27-2.91-3-2.37-7.25-2.27-7.94a10.14,10.14,0,0,1-.85,7.37c-.54,1-1.61,2.84-3.4,3.12-2.74.43-6.45-3-6.24-6.8.18-3.25,3.2-6.15,7.09-6.24a6.75,6.75,0,0,1-7.65.56,5.9,5.9,0,0,1-2.84-4.82c0-3.33,3.39-6.23,6.8-6.23C978.48,202.57,981.79,205.71,982,209.94Z" style="fill:url(#radial-gradient-27)"/><path d="M992.17,229.94a11.34,11.34,0,0,0-5.56,4.65,6.55,6.55,0,0,0-1.17,4.95,5.34,5.34,0,0,0,4.39,4.07c3.48.25,5.56-4.57,5.85-5.24a10.74,10.74,0,0,0,.59-6.39c-1,2.72-.29,5.51,1.46,6.69,2.55,1.71,6.14-.8,7.61-2.33.66-.69,2.15-2.24,1.75-3.78-.43-1.69-3-3-6.43-2.62.47.22,3.77,1.66,6.73,0a4.85,4.85,0,0,0,2.63-3.2,4.61,4.61,0,0,0-2-4.36c-2.25-1.46-6.26-.5-9.36,2.91.24-.17,2.82-2,2.63-4.65a5.5,5.5,0,0,0-2-3.49c-1.86-1.84-5.42-4-7-2.91s-1.24,5.25,1.17,10.18c-.66-2.91-2.61-5.06-4.68-5.24-3.1-.26-5.63,4-5.56,7.27a5.08,5.08,0,0,0,1.46,3.78C986.28,231.77,989.4,231.75,992.17,229.94Z" style="fill:url(#radial-gradient-28)"/><path d="M964.55,218.77a10.4,10.4,0,0,1-2.74-5.48c-.18-1.22-.57-3.81.91-4.88,1.29-.92,3.4-.28,4.57.61,2.18,1.67,2.7,5.46,1.22,9.44,1.24-6,2.73-6.64,3.35-6.7,2.34-.22,6.67,6.14,4.26,10.05-1.69,2.74-5.73,2.75-6.09,2.74a9.33,9.33,0,0,1,3.35,4,6,6,0,0,1,.61,4.26c-.83,2.53-4.3,4.42-6.7,3.35s-3.73-5.07-1.52-8.52c-1.13,4.75-3.45,7.8-5.18,7.61-2-.23-4.32-5-2.43-8.22a6.31,6.31,0,0,1,4.56-2.74,5.58,5.58,0,0,1-2.74,0,5,5,0,0,1-3-2.13c-1.06-1.88-.65-5,1.52-6.09A4.55,4.55,0,0,1,964.55,218.77Z" style="fill:url(#radial-gradient-29)"/><path d="M1011.77,195.47a7.3,7.3,0,0,0-2-.6c.26-.18.49-.36.69-.52a5,5,0,0,0-6.37-7.6,6.63,6.63,0,0,0-.9,1,6.12,6.12,0,0,0,0-.62,5,5,0,1,0-9.88.7,7.36,7.36,0,0,0,.54,2.11,13.56,13.56,0,0,0-1.25-.76,5,5,0,0,0-4.53,8.82,10.71,10.71,0,0,0,4.3.84,13.77,13.77,0,0,0-2.52,1.62,5,5,0,0,0,6.37,7.59,6.63,6.63,0,0,0,1-1.08,5,5,0,0,0,9.85-1.07,7.53,7.53,0,0,0-.49-2,8,8,0,0,0,.72.41,5,5,0,0,0,4.48-8.84Z" style="fill:url(#radial-gradient-30)"/><path d="M1010.15,189.49a11.28,11.28,0,0,0-5.56,4.65,6.53,6.53,0,0,0-1.17,4.94,5.33,5.33,0,0,0,4.39,4.07c3.48.26,5.56-4.56,5.85-5.23a10.77,10.77,0,0,0,.59-6.4c-1,2.72-.29,5.51,1.46,6.69,2.55,1.72,6.14-.8,7.61-2.32.66-.69,2.15-2.24,1.75-3.78-.43-1.7-3-3-6.43-2.62.47.22,3.77,1.66,6.73,0a4.87,4.87,0,0,0,2.63-3.2,4.61,4.61,0,0,0-2-4.36c-2.25-1.46-6.26-.5-9.36,2.91.24-.17,2.82-2,2.63-4.66a5.53,5.53,0,0,0-2.05-3.49c-1.86-1.83-5.42-4-7-2.9s-1.24,5.25,1.17,10.17c-.66-2.9-2.61-5.06-4.68-5.23-3.11-.26-5.63,4-5.56,7.27a5.1,5.1,0,0,0,1.46,3.78C1004.26,191.32,1007.38,191.3,1010.15,189.49Z" style="fill:url(#radial-gradient-31)"/><path d="M955.18,239a6.63,6.63,0,0,1-1.36-3.31c-.15-1.47.1-4.3,1.95-5.06s4.73,1,5.25,3.31a4.76,4.76,0,0,1-1,3.7,5.4,5.4,0,0,1-2.73,2,8.33,8.33,0,0,1,5.26-2.73c.89-.08,2.55-.24,3.31.78s.24,2.62-.39,3.5c-1.27,1.77-4.3,2.25-7.59,1.17a6.42,6.42,0,0,1,3.89,2.14c.53.65,1.56,1.89,1.17,3.31a3.23,3.23,0,0,1-2.53,2.14c-1.85.34-3.28-1.13-3.7-1.56a6.69,6.69,0,0,1-1.56-5.45,7,7,0,0,1-.58,5.06c-.37.65-1.11,1.95-2.34,2.14-1.88.3-4.42-2.06-4.28-4.67a4.86,4.86,0,0,1,4.87-4.28,4.64,4.64,0,0,1-5.26.39,4,4,0,0,1-1.94-3.31c0-2.28,2.32-4.28,4.67-4.28A5.16,5.16,0,0,1,955.18,239Z" style="fill:url(#radial-gradient-32)"/><path d="M895.63,268.21a10.36,10.36,0,0,1-2.74-5.48c-.18-1.22-.57-3.81.91-4.87,1.29-.93,3.4-.29,4.57.61,2.18,1.67,2.7,5.46,1.22,9.44,1.24-6,2.73-6.64,3.35-6.7,2.34-.23,6.67,6.13,4.26,10.05-1.69,2.73-5.73,2.74-6.09,2.74a9.35,9.35,0,0,1,3.35,3.95,6,6,0,0,1,.61,4.27c-.83,2.53-4.3,4.41-6.7,3.35s-3.73-5.08-1.52-8.53c-1.13,4.75-3.45,7.81-5.18,7.61-2-.23-4.32-5-2.44-8.22a6.36,6.36,0,0,1,4.57-2.74,5.58,5.58,0,0,1-2.74,0,4.89,4.89,0,0,1-3-2.13c-1.06-1.87-.65-5,1.52-6.09A4.56,4.56,0,0,1,895.63,268.21Z" style="fill:url(#radial-gradient-33)"/><path d="M889.32,261.15a7.63,7.63,0,0,1-1.59-3.85c-.18-1.71.11-5,2.27-5.89s5.5,1.21,6.11,3.85a5.51,5.51,0,0,1-1.13,4.3,6.28,6.28,0,0,1-3.17,2.27,9.66,9.66,0,0,1,6.11-3.17c1-.1,3-.28,3.85.9s.28,3.05-.45,4.08c-1.48,2.06-5,2.61-8.83,1.36a7.45,7.45,0,0,1,4.52,2.49c.62.75,1.82,2.19,1.36,3.85a3.76,3.76,0,0,1-2.94,2.49c-2.15.39-3.82-1.32-4.3-1.81a7.81,7.81,0,0,1-1.81-6.34,8.09,8.09,0,0,1-.68,5.88c-.43.76-1.29,2.27-2.72,2.49-2.18.35-5.15-2.4-5-5.43a5.63,5.63,0,0,1,5.66-5,5.4,5.4,0,0,1-6.11.45,4.73,4.73,0,0,1-2.27-3.85c0-2.66,2.71-5,5.44-5A6,6,0,0,1,889.32,261.15Z" style="fill:url(#radial-gradient-34)"/><path d="M782.74,302.83a9.52,9.52,0,0,1-2-4.82c-.23-2.14.14-6.27,2.83-7.37s6.9,1.51,7.66,4.82a6.92,6.92,0,0,1-1.42,5.39,7.76,7.76,0,0,1-4,2.83c-.1-.16,3.26-3.55,7.66-4,1.3-.12,3.72-.35,4.82,1.14s.35,3.81-.57,5.1c-1.85,2.58-6.26,3.27-11.06,1.7a9.37,9.37,0,0,1,5.67,3.12c.78.94,2.27,2.75,1.7,4.82a4.7,4.7,0,0,1-3.68,3.12c-2.69.5-4.78-1.64-5.39-2.27-2.91-3-2.37-7.25-2.27-7.94a10.13,10.13,0,0,1-.85,7.37c-.54.95-1.61,2.84-3.4,3.12-2.74.44-6.45-3-6.24-6.8.18-3.25,3.2-6.15,7.09-6.24a6.79,6.79,0,0,1-7.66.57,5.92,5.92,0,0,1-2.83-4.82c0-3.33,3.39-6.24,6.8-6.24C779.21,295.46,782.52,298.61,782.74,302.83Z" style="fill:url(#radial-gradient-35)"/><path d="M756.29,314.66a10.4,10.4,0,0,1-2.74-5.48c-.18-1.22-.57-3.81.91-4.88,1.29-.92,3.4-.28,4.57.61,2.18,1.67,2.7,5.46,1.22,9.44,1.24-6,2.73-6.64,3.35-6.7,2.34-.22,6.67,6.14,4.26,10.05-1.69,2.74-5.73,2.75-6.09,2.74a9.33,9.33,0,0,1,3.35,4,6,6,0,0,1,.61,4.26c-.83,2.53-4.3,4.42-6.7,3.35s-3.73-5.07-1.52-8.52c-1.13,4.75-3.45,7.8-5.18,7.61-2-.23-4.32-5-2.44-8.22a6.33,6.33,0,0,1,4.57-2.74,5.58,5.58,0,0,1-2.74,0,5,5,0,0,1-3-2.13c-1.06-1.88-.65-5,1.52-6.09A4.56,4.56,0,0,1,756.29,314.66Z" style="fill:url(#radial-gradient-36)"/><path d="M736.43,321.4a6.63,6.63,0,0,1-1.36-3.31c-.15-1.47.1-4.31,1.95-5.06s4.73,1,5.25,3.31a4.74,4.74,0,0,1-1,3.69,5.32,5.32,0,0,1-2.73,2,8.34,8.34,0,0,1,5.26-2.72c.89-.09,2.55-.24,3.31.77s.24,2.62-.39,3.51c-1.27,1.77-4.3,2.24-7.59,1.17a6.42,6.42,0,0,1,3.89,2.14c.53.64,1.56,1.88,1.17,3.3a3.25,3.25,0,0,1-2.53,2.15c-1.85.34-3.28-1.13-3.7-1.56a6.7,6.7,0,0,1-1.56-5.45,7,7,0,0,1-.58,5.06c-.37.65-1.11,1.95-2.34,2.14-1.88.3-4.42-2.06-4.28-4.67a4.85,4.85,0,0,1,4.87-4.28,4.66,4.66,0,0,1-5.26.39,4.08,4.08,0,0,1-1.94-3.31c0-2.29,2.32-4.28,4.67-4.28A5.16,5.16,0,0,1,736.43,321.4Z" style="fill:url(#radial-gradient-37)"/><path d="M772,315.09a7.43,7.43,0,0,1-2-3.95c-.13-.88-.41-2.74.66-3.51s2.45-.21,3.29.44c1.57,1.2,1.95,3.93.88,6.8.89-4.34,2-4.78,2.41-4.82,1.69-.17,4.81,4.42,3.08,7.24-1.22,2-4.13,2-4.39,2a6.84,6.84,0,0,1,2.41,2.86,4.25,4.25,0,0,1,.44,3.07c-.6,1.82-3.1,3.18-4.83,2.41s-2.69-3.65-1.1-6.14c-.81,3.42-2.48,5.62-3.73,5.48-1.45-.16-3.11-3.59-1.75-5.92a4.57,4.57,0,0,1,3.29-2,3.89,3.89,0,0,1-2,0,3.51,3.51,0,0,1-2.19-1.53,3,3,0,1,1,5.49-2.42Z" style="fill:url(#radial-gradient-38)"/><path d="M985,195a9.52,9.52,0,0,1-2-4.82c-.23-2.15.13-6.27,2.83-7.38s6.9,1.51,7.66,4.82A6.92,6.92,0,0,1,992.1,193a7.92,7.92,0,0,1-4,2.84c-.1-.16,3.26-3.56,7.65-4,1.31-.13,3.73-.35,4.82,1.13s.36,3.82-.56,5.1c-1.85,2.58-6.26,3.28-11.06,1.71a9.37,9.37,0,0,1,5.67,3.11c.78.94,2.27,2.75,1.7,4.83a4.69,4.69,0,0,1-3.68,3.11c-2.69.5-4.78-1.64-5.39-2.26-2.91-3-2.37-7.25-2.27-7.94a10.14,10.14,0,0,1-.85,7.37c-.54.95-1.62,2.83-3.4,3.12-2.74.43-6.45-3-6.24-6.81.18-3.24,3.2-6.14,7.09-6.24a6.75,6.75,0,0,1-7.66.57,5.92,5.92,0,0,1-2.83-4.82c0-3.33,3.39-6.23,6.8-6.24C981.48,187.58,984.79,190.73,985,195Z" style="fill:url(#radial-gradient-39)"/><path d="M749.09,246.12a9.08,9.08,0,0,0-2.38-.72c.31-.22.59-.43.83-.63a6,6,0,1,0-7.7-9.18,7.36,7.36,0,0,0-1.08,1.17c0-.27,0-.52,0-.76a6,6,0,1,0-12,.85,9.51,9.51,0,0,0,.65,2.56,13.34,13.34,0,0,0-1.51-.92,6,6,0,0,0-5.47,10.66,13.21,13.21,0,0,0,5.19,1,16.59,16.59,0,0,0-3,2,6,6,0,1,0,7.69,9.18,7.79,7.79,0,0,0,1.19-1.31,6,6,0,0,0,11.9-1.29,9,9,0,0,0-.59-2.38c.31.19.6.35.87.49a6,6,0,0,0,5.42-10.69Z" style="fill:url(#radial-gradient-40)"/><path d="M758.77,223.42a9.56,9.56,0,0,1-2-4.82c-.22-2.14.14-6.27,2.84-7.37s6.9,1.51,7.66,4.82a6.92,6.92,0,0,1-1.42,5.39,7.8,7.8,0,0,1-4,2.83c-.1-.15,3.26-3.55,7.65-4,1.31-.12,3.73-.35,4.82,1.14s.36,3.81-.56,5.1c-1.85,2.58-6.26,3.28-11.06,1.7a9.39,9.39,0,0,1,5.67,3.12c.78.94,2.27,2.75,1.7,4.82a4.68,4.68,0,0,1-3.69,3.12c-2.69.5-4.77-1.64-5.38-2.27-2.91-3-2.37-7.25-2.27-7.94a10.16,10.16,0,0,1-.85,7.38c-.54.94-1.62,2.83-3.4,3.11-2.74.44-6.45-3-6.24-6.8.18-3.25,3.19-6.15,7.09-6.24a6.79,6.79,0,0,1-7.66.57,5.92,5.92,0,0,1-2.83-4.82c0-3.33,3.39-6.24,6.8-6.24S758.55,219.2,758.77,223.42Z" style="fill:url(#radial-gradient-41)"/><path d="M873.77,181.1a6.79,6.79,0,0,0-1.76-.54,6.87,6.87,0,0,0,.61-.47,4.44,4.44,0,1,0-5.7-6.8,5.77,5.77,0,0,0-.8.87c0-.2,0-.39,0-.56a4.44,4.44,0,1,0-8.85.63,6.63,6.63,0,0,0,.48,1.89,12.47,12.47,0,0,0-1.12-.68,4.44,4.44,0,0,0-4.05,7.9,9.54,9.54,0,0,0,3.84.75,13.12,13.12,0,0,0-2.25,1.45,4.44,4.44,0,0,0,5.7,6.8,5.31,5.31,0,0,0,.88-1,4.44,4.44,0,0,0,8.82-1,6.54,6.54,0,0,0-.44-1.76c.23.14.45.27.65.37a4.44,4.44,0,0,0,4-7.92Z" style="fill:url(#radial-gradient-42)"/><path d="M747.94,232.18a9.4,9.4,0,0,0-4.64,4,5.71,5.71,0,0,0-1,4.25,4.5,4.5,0,0,0,3.65,3.49c2.91.22,4.64-3.92,4.88-4.49a9.45,9.45,0,0,0,.49-5.49c-.82,2.33-.24,4.73,1.22,5.74,2.13,1.47,5.12-.69,6.34-2,.55-.59,1.79-1.92,1.46-3.25s-2.52-2.56-5.36-2.24c.4.18,3.15,1.43,5.61,0a4.14,4.14,0,0,0,2.19-2.75,4,4,0,0,0-1.7-3.74c-1.88-1.26-5.22-.43-7.81,2.49.21-.14,2.36-1.72,2.2-4a4.81,4.81,0,0,0-1.71-3c-1.55-1.58-4.52-3.41-5.85-2.5s-1,4.51,1,8.74c-.54-2.49-2.17-4.34-3.9-4.49-2.59-.22-4.69,3.41-4.64,6.24a4.55,4.55,0,0,0,1.22,3.25C743,233.75,745.63,233.73,747.94,232.18Z" style="fill:url(#radial-gradient-43)"/><path d="M747.21,235.14a5.32,5.32,0,0,0-1.57-.56c.2-.17.39-.33.55-.49a5.25,5.25,0,0,0,.49-6.56,3.56,3.56,0,0,0-5.57-.58,5.66,5.66,0,0,0-.71.91c0-.21,0-.41,0-.59-.15-2.56-2-4.5-4.22-4.31s-3.81,2.41-3.66,5a8.64,8.64,0,0,0,.43,2,8.19,8.19,0,0,0-1-.71c-1.94-1.18-4.32-.28-5.32,2a5.09,5.09,0,0,0,1.71,6.27,7.56,7.56,0,0,0,3.42.8,11.18,11.18,0,0,0-2,1.51,5.27,5.27,0,0,0-.49,6.57,3.54,3.54,0,0,0,5.56.57,5.55,5.55,0,0,0,.79-1c.29,2.39,2.11,4.15,4.19,4s3.81-2.41,3.65-5a7.68,7.68,0,0,0-.39-1.85,6.3,6.3,0,0,0,.58.38c1.94,1.17,4.32.25,5.3-2A5.08,5.08,0,0,0,747.21,235.14Z" style="fill:url(#radial-gradient-44)"/><path d="M644.9,302.83a9.52,9.52,0,0,1-2-4.82c-.23-2.14.13-6.27,2.83-7.37s6.9,1.51,7.66,4.82a6.92,6.92,0,0,1-1.42,5.39,7.8,7.8,0,0,1-4,2.83c-.1-.16,3.26-3.55,7.65-4,1.31-.12,3.73-.35,4.82,1.14s.36,3.81-.56,5.1c-1.85,2.58-6.26,3.27-11.06,1.7a9.39,9.39,0,0,1,5.67,3.12c.78.94,2.27,2.75,1.7,4.82a4.7,4.7,0,0,1-3.68,3.12c-2.69.5-4.78-1.64-5.39-2.27-2.91-3-2.37-7.25-2.27-7.94a10.13,10.13,0,0,1-.85,7.37c-.54.95-1.62,2.84-3.4,3.12-2.74.44-6.45-3-6.24-6.8.18-3.25,3.2-6.15,7.09-6.24a6.79,6.79,0,0,1-7.66.57A5.92,5.92,0,0,1,631,301.7c0-3.33,3.39-6.24,6.8-6.24C641.37,295.46,644.68,298.61,644.9,302.83Z" style="fill:url(#radial-gradient-45)"/><path d="M636.06,301.31a6.57,6.57,0,0,0-1.65-.51,7.07,7.07,0,0,0,.57-.44,4.18,4.18,0,1,0-5.37-6.4,5.58,5.58,0,0,0-.75.82c0-.19,0-.37,0-.53a4.18,4.18,0,0,0-8.34.59,6.47,6.47,0,0,0,.46,1.79,11.33,11.33,0,0,0-1.06-.65,4.18,4.18,0,0,0-3.81,7.44,9.06,9.06,0,0,0,3.62.71,12,12,0,0,0-2.12,1.36A4.18,4.18,0,1,0,623,311.9a5.81,5.81,0,0,0,.83-.91,4.18,4.18,0,0,0,8.3-.91,6.55,6.55,0,0,0-.41-1.66,6.66,6.66,0,0,0,.61.35,4.18,4.18,0,0,0,3.77-7.46Z" style="fill:url(#radial-gradient-46)"/><path d="M646.31,288.55a4.37,4.37,0,0,0-1.3-.47c.17-.14.32-.28.46-.41a4.38,4.38,0,0,0,.4-5.47,3,3,0,0,0-4.63-.48,4.19,4.19,0,0,0-.6.76c0-.18,0-.34,0-.49-.13-2.14-1.71-3.75-3.52-3.6a3.73,3.73,0,0,0-3.05,4.15,7.14,7.14,0,0,0,.36,1.66,6.73,6.73,0,0,0-.83-.6,3.06,3.06,0,0,0-4.43,1.68,4.23,4.23,0,0,0,1.43,5.22,6.11,6.11,0,0,0,2.85.67,9,9,0,0,0-1.67,1.26,4.38,4.38,0,0,0-.41,5.47,3,3,0,0,0,4.64.48,4.93,4.93,0,0,0,.65-.85,3.48,3.48,0,0,0,3.49,3.32,3.75,3.75,0,0,0,3.05-4.16,7,7,0,0,0-.33-1.54,5,5,0,0,0,.48.32,3.06,3.06,0,0,0,4.42-1.71A4.22,4.22,0,0,0,646.31,288.55Z" style="fill:url(#radial-gradient-47)"/><path d="M754.92,247.21a9.43,9.43,0,0,0-4.63,4,5.74,5.74,0,0,0-1,4.24,4.52,4.52,0,0,0,3.66,3.5c2.9.22,4.64-3.92,4.88-4.49a9.57,9.57,0,0,0,.49-5.5c-.82,2.34-.24,4.73,1.22,5.75,2.12,1.47,5.12-.69,6.34-2,.55-.59,1.79-1.92,1.46-3.25s-2.53-2.57-5.37-2.24c.4.18,3.15,1.42,5.61,0a4.18,4.18,0,0,0,2.2-2.75,4,4,0,0,0-1.71-3.75c-1.87-1.25-5.22-.43-7.8,2.5.2-.15,2.35-1.72,2.19-4a4.75,4.75,0,0,0-1.7-3c-1.55-1.58-4.53-3.41-5.86-2.5s-1,4.51,1,8.74c-.55-2.49-2.18-4.34-3.9-4.49-2.59-.23-4.7,3.41-4.64,6.24a4.47,4.47,0,0,0,1.22,3.24C750,248.77,752.61,248.76,754.92,247.21Z" style="fill:url(#radial-gradient-48)"/><path d="M1046.22,53.58a13.25,13.25,0,0,0-6.5,5.68c-.8,1.43-2,3.51-1.34,6s2.74,4.73,5.2,4.9c4.1.28,6.51-5.58,6.84-6.39a13.38,13.38,0,0,0,.64-7.76c-1.14,3.31-.3,6.68,1.77,8.1,3,2.06,7.22-1,8.94-2.88.76-.84,2.5-2.73,2-4.6-.52-2.05-3.59-3.6-7.59-3.12.56.26,4.45,2,7.91,0a5.89,5.89,0,0,0,3.08-3.9,5.65,5.65,0,0,0-2.45-5.27c-2.66-1.76-7.37-.56-11,3.6.29-.21,3.31-2.46,3.06-5.66a6.72,6.72,0,0,0-2.44-4.22c-2.2-2.21-6.41-4.77-8.29-3.47s-1.41,6.38,1.46,12.33c-.79-3.52-3.1-6.11-5.55-6.31-3.65-.29-6.59,4.86-6.48,8.86a6.3,6.3,0,0,0,1.75,4.57C1039.31,55.84,1043,55.79,1046.22,53.58Z" style="fill:url(#radial-gradient-49)"/><path d="M1072.71,30.37a8.88,8.88,0,0,0-2.37-.72c.31-.22.59-.43.83-.64a6,6,0,0,0-7.7-9.18,7.46,7.46,0,0,0-1.08,1.18c0-.27,0-.53,0-.76a6,6,0,1,0-11.95.85,9.15,9.15,0,0,0,.65,2.56,12,12,0,0,0-1.51-.92,6,6,0,1,0-5.47,10.65,12.86,12.86,0,0,0,5.19,1,17.63,17.63,0,0,0-3,2,6,6,0,0,0,7.7,9.18,8.2,8.2,0,0,0,1.19-1.31A6,6,0,0,0,1067,43a9,9,0,0,0-.59-2.38c.31.19.6.35.87.49a6,6,0,0,0,5.41-10.69Z" style="fill:url(#radial-gradient-50)"/><path d="M1031.11,41.9a9.43,9.43,0,0,0-4.63,4,5.76,5.76,0,0,0-1,4.25,4.51,4.51,0,0,0,3.66,3.49c2.9.22,4.64-3.92,4.88-4.49a9.57,9.57,0,0,0,.49-5.5c-.82,2.34-.24,4.74,1.21,5.75,2.13,1.47,5.12-.69,6.35-2,.54-.59,1.79-1.92,1.46-3.25s-2.53-2.56-5.37-2.24c.4.18,3.15,1.42,5.61,0a4.18,4.18,0,0,0,2.2-2.75,4,4,0,0,0-1.71-3.75c-1.87-1.25-5.22-.43-7.8,2.5.2-.14,2.35-1.72,2.19-4a4.72,4.72,0,0,0-1.71-3c-1.55-1.58-4.52-3.41-5.85-2.5s-1,4.51,1,8.74c-.55-2.49-2.18-4.34-3.91-4.49-2.58-.23-4.69,3.41-4.63,6.24a4.5,4.5,0,0,0,1.22,3.25C1026.21,43.47,1028.8,43.45,1031.11,41.9Z" style="fill:url(#radial-gradient-51)"/><path d="M1075.91,38.63a11.4,11.4,0,0,1,6.32-3.53c1.4-.22,4.36-.68,5.55,1.3,1,1.73.25,4.52-.8,6.06-2,2.86-6.29,3.48-10.81,1.43,6.87,1.77,7.53,3.76,7.58,4.58.2,3.12-7.16,8.74-11.57,5.46-3.09-2.29-3-7.65-3-8.13a11.35,11.35,0,0,1-4.59,4.37c-1.19.58-3,1.47-4.88.73-2.88-1.15-5-5.79-3.68-9s5.88-4.86,9.77-1.86c-5.4-1.59-8.84-4.72-8.58-7,.31-2.67,5.8-5.64,9.45-3.08,2.58,1.83,3,5.54,3,6.12a8.54,8.54,0,0,1,.06-3.64,6.76,6.76,0,0,1,2.51-4,4.83,4.83,0,0,1,6.92,2.14A6.39,6.39,0,0,1,1075.91,38.63Z" style="fill:url(#radial-gradient-52)"/><path d="M1032.69,74.28a6.53,6.53,0,0,0-.18-1.82c.24.15.46.28.67.39a4.41,4.41,0,0,0,4-7.84,5.8,5.8,0,0,0-1.1-.4l.51-.23a4.42,4.42,0,0,0-4-7.89,6.78,6.78,0,0,0-1.55,1.17,10.2,10.2,0,0,0,.19-1.28,4.41,4.41,0,1,0-8.79-.7,9.53,9.53,0,0,0,.78,3.82,12.22,12.22,0,0,0-2.19-1.51,4.41,4.41,0,1,0-4.06,7.83,5.82,5.82,0,0,0,1.23.44,4.41,4.41,0,0,0,4.25,7.72,6.31,6.31,0,0,0,1.45-1.07c0,.26-.07.5-.09.73a4.41,4.41,0,1,0,8.8.64Z" style="fill:url(#radial-gradient-53)"/><path d="M926.58,310.32a9.56,9.56,0,0,1-2-4.82c-.22-2.14.14-6.27,2.84-7.37s6.9,1.51,7.65,4.82a6.93,6.93,0,0,1-1.41,5.39,7.8,7.8,0,0,1-4,2.83c-.11-.15,3.26-3.55,7.65-4,1.31-.12,3.73-.34,4.82,1.14s.36,3.81-.57,5.1c-1.84,2.58-6.26,3.28-11.05,1.7a9.39,9.39,0,0,1,5.67,3.12c.77.94,2.27,2.75,1.7,4.82a4.68,4.68,0,0,1-3.69,3.12c-2.69.5-4.77-1.64-5.38-2.27-2.91-3-2.37-7.25-2.27-7.94a10.22,10.22,0,0,1-.85,7.38c-.54.94-1.62,2.83-3.41,3.12-2.73.43-6.45-3-6.23-6.81.18-3.25,3.19-6.15,7.08-6.24a6.77,6.77,0,0,1-7.65.57,5.93,5.93,0,0,1-2.84-4.82c0-3.33,3.4-6.24,6.81-6.24S926.36,306.1,926.58,310.32Z" style="fill:url(#radial-gradient-54)"/><path d="M827.12,369.89a8.73,8.73,0,0,1-2.38-4.62c-.15-1-.49-3.2.8-4.1,1.11-.78,2.94-.24,4,.51,1.89,1.41,2.34,4.6,1,7.95,1.08-5.08,2.38-5.59,2.91-5.64,2-.19,5.78,5.16,3.7,8.46-1.47,2.31-5,2.31-5.29,2.31a7.85,7.85,0,0,1,2.91,3.33,4.93,4.93,0,0,1,.53,3.59c-.72,2.13-3.73,3.72-5.81,2.82s-3.24-4.27-1.32-7.18c-1,4-3,6.58-4.49,6.41-1.75-.19-3.75-4.2-2.11-6.92a5.56,5.56,0,0,1,4-2.31,5,5,0,0,1-2.38,0,4.29,4.29,0,0,1-2.64-1.79c-.92-1.58-.56-4.2,1.32-5.13A4,4,0,0,1,827.12,369.89Z" style="fill:url(#radial-gradient-55)"/><path d="M835.32,361.85a6.45,6.45,0,0,1-1.36-3.31c-.16-1.47.09-4.3,1.94-5.06s4.74,1,5.26,3.31a4.73,4.73,0,0,1-1,3.7,5.38,5.38,0,0,1-2.72,1.94,8.39,8.39,0,0,1,5.25-2.72c.9-.08,2.56-.24,3.31.78s.25,2.62-.39,3.5c-1.26,1.77-4.29,2.25-7.59,1.17a6.43,6.43,0,0,1,3.9,2.14c.53.64,1.55,1.88,1.16,3.31a3.22,3.22,0,0,1-2.53,2.14c-1.84.34-3.28-1.13-3.69-1.56a6.69,6.69,0,0,1-1.56-5.45,7,7,0,0,1-.58,5.06c-.38.65-1.11,1.95-2.34,2.14-1.88.3-4.43-2.06-4.28-4.67A4.83,4.83,0,0,1,833,364a4.64,4.64,0,0,1-5.25.39,4.07,4.07,0,0,1-2-3.31c0-2.28,2.33-4.28,4.67-4.28A5.17,5.17,0,0,1,835.32,361.85Z" style="fill:url(#radial-gradient-56)"/><path d="M843.9,358.54a7.5,7.5,0,0,1-2-4c-.13-.88-.41-2.74.66-3.51.92-.66,2.44-.21,3.29.44,1.57,1.2,2,3.93.88,6.8.89-4.34,2-4.78,2.41-4.82,1.69-.17,4.81,4.42,3.07,7.24-1.21,2-4.12,2-4.39,2a6.78,6.78,0,0,1,2.42,2.86,4.35,4.35,0,0,1,.44,3.07c-.6,1.82-3.1,3.18-4.83,2.41s-2.69-3.65-1.1-6.14c-.81,3.42-2.48,5.62-3.73,5.48-1.45-.16-3.12-3.59-1.76-5.92a4.6,4.6,0,0,1,3.3-2,3.89,3.89,0,0,1-2,0,3.51,3.51,0,0,1-2.19-1.53,3,3,0,1,1,5.48-2.42Z" style="fill:url(#radial-gradient-57)"/><path d="M891.55,368.39a8.67,8.67,0,0,1-2.38-4.62c-.16-1-.49-3.2.79-4.1,1.12-.78,2.95-.24,4,.51,1.9,1.41,2.35,4.6,1.06,7.95,1.08-5.08,2.37-5.59,2.91-5.64,2-.19,5.78,5.17,3.69,8.46-1.46,2.31-5,2.31-5.28,2.31a8,8,0,0,1,2.91,3.33,4.88,4.88,0,0,1,.52,3.59c-.71,2.13-3.72,3.72-5.81,2.82s-3.23-4.27-1.32-7.18c-1,4-3,6.58-4.49,6.41-1.75-.19-3.75-4.2-2.11-6.92a5.56,5.56,0,0,1,4-2.31,4.83,4.83,0,0,1-2.37,0,4.27,4.27,0,0,1-2.64-1.79c-.92-1.58-.56-4.2,1.32-5.13A4,4,0,0,1,891.55,368.39Z" style="fill:url(#radial-gradient-58)"/><path d="M902.63,371.63a6.48,6.48,0,0,1,3.88.17c.73.28,2.27.88,2.37,2a2.82,2.82,0,0,1-1.81,2.39c-1.61.7-3.85-.19-5.55-2.28,2.9,2.59,2.75,3.62,2.58,4-.63,1.39-5.51,1.83-6.87-.75-1-1.81.35-4.09.47-4.29a6,6,0,0,1-3.25.65,3.68,3.68,0,0,1-2.53-1,3.61,3.61,0,0,1,.33-4.82c1.36-1,4-.51,5.16,1.81-2.24-2.12-3.16-4.38-2.49-5.3s4.12-.87,5.28,1.21a4.15,4.15,0,0,1,0,3.43,3.66,3.66,0,0,1,.89-1.54,3.19,3.19,0,0,1,2.15-1,2.85,2.85,0,0,1,2.84,2.77A3,3,0,0,1,902.63,371.63Z" style="fill:url(#radial-gradient-59)"/><path d="M872.61,277c-2.73,2.24-6.23,2.24-8,.59-2.49-2.38-.13-7.11.29-7.95.6-1.2,1.46-2.93,2.95-3.24,2.13-.44,5.06,2.19,6.77,6.77-2.92-3.46-3.49-7.33-2.06-8.83,1.79-1.89,7.36-.75,9.13,2.94a7.11,7.11,0,0,1-1.18,7.37,6.67,6.67,0,0,1,7.37-2.07c3.45,1.33,5,5.63,3.83,7.66s-5.89,2.77-10.9,0c5.1.22,8.22,4.23,7.66,7.37a5.81,5.81,0,0,1-5.9,4.42c-3.08-.38-6-4.59-4.71-9.72a5.69,5.69,0,0,1-3.83,6.48c-3.09.86-6.13-1.62-6.77-4.42C866.59,281.21,868.86,277.68,872.61,277Z" style="fill:url(#radial-gradient-60)"/><path d="M772.22,226c-2.72,2.24-6.23,2.24-8,.59-2.48-2.38-.12-7.11.29-8,.6-1.2,1.47-2.94,3-3.24,2.14-.44,5.07,2.19,6.78,6.77-2.93-3.47-3.49-7.33-2.07-8.83,1.79-1.89,7.36-.75,9.14,2.94a7.14,7.14,0,0,1-1.18,7.37,6.64,6.64,0,0,1,7.36-2.07c3.45,1.33,5,5.63,3.83,7.66s-5.89,2.77-10.9,0c5.1.22,8.22,4.23,7.66,7.37a5.81,5.81,0,0,1-5.89,4.42c-3.08-.39-6-4.59-4.71-9.73a5.68,5.68,0,0,1-3.83,6.48c-3.09.87-6.14-1.62-6.78-4.41A6.39,6.39,0,0,1,772.22,226Z" style="fill:url(#radial-gradient-61)"/><path d="M994,247c-2.73,2.24-6.23,2.24-8,.59-2.49-2.38-.13-7.12.29-8,.6-1.19,1.46-2.93,3-3.24,2.13-.44,5.06,2.19,6.77,6.78-2.92-3.47-3.49-7.33-2.06-8.84,1.79-1.89,7.36-.75,9.13,2.95a7.1,7.1,0,0,1-1.18,7.36,6.67,6.67,0,0,1,7.37-2.06c3.45,1.32,5,5.62,3.83,7.66s-5.89,2.77-10.9,0c5.1.21,8.22,4.23,7.66,7.36A5.81,5.81,0,0,1,1004,262c-3.08-.38-6-4.59-4.71-9.72a5.69,5.69,0,0,1-3.83,6.48c-3.09.86-6.13-1.62-6.77-4.42C988,251.25,990.22,247.71,994,247Z" style="fill:url(#radial-gradient-62)"/><path d="M923.55,330.9c-2.73,2.24-6.23,2.24-7.95.59-2.49-2.38-.13-7.11.29-7.95.6-1.2,1.46-2.94,3-3.24,2.13-.44,5.07,2.19,6.77,6.77-2.92-3.47-3.49-7.33-2.06-8.83,1.79-1.89,7.36-.75,9.13,2.94a7.09,7.09,0,0,1-1.18,7.37,6.66,6.66,0,0,1,7.37-2.07c3.45,1.33,5,5.63,3.83,7.66s-5.89,2.77-10.9,0c5.1.22,8.22,4.23,7.66,7.37a5.8,5.8,0,0,1-5.89,4.41c-3.09-.38-6-4.58-4.72-9.72a5.68,5.68,0,0,1-3.83,6.48c-3.08.87-6.13-1.62-6.77-4.41A6.39,6.39,0,0,1,923.55,330.9Z" style="fill:url(#radial-gradient-63)"/><path d="M783.16,226.9a9.18,9.18,0,0,0,2-1.41c0,.37,0,.72,0,1a6,6,0,1,0,12-.37,7.51,7.51,0,0,0-.24-1.57c.21.16.41.31.61.44a6,6,0,1,0,6.72-9.91,9.23,9.23,0,0,0-2.41-1.07,12.42,12.42,0,0,0,1.66-.62,6,6,0,1,0-5-10.89,12.91,12.91,0,0,0-4,3.45,17.15,17.15,0,0,0,.34-3.6,6,6,0,0,0-12,.36,8.27,8.27,0,0,0,.29,1.75,6,6,0,0,0-6.35,10.15,9.05,9.05,0,0,0,2.24,1c-.34.12-.65.25-.93.38a6,6,0,1,0,5,10.86Z" style="fill:url(#radial-gradient-64)"/><path d="M905.74,95.28a9.43,9.43,0,0,1,5,1.42c1.83,1.15,4.84,4,4,6.79s-5.45,4.48-8.52,3a6.93,6.93,0,0,1-3.36-4.45,7.86,7.86,0,0,1,.23-4.87c.19,0,.78,4.77-1.62,8.47-.71,1.1-2,3.14-3.87,3.08s-3.22-2.08-3.66-3.6c-.88-3,1.3-6.94,5.51-9.74a9.45,9.45,0,0,1-6,2.53c-1.22,0-3.56.08-4.84-1.65a4.69,4.69,0,0,1-.17-4.83c1.27-2.42,4.25-2.73,5.12-2.82,4.14-.44,7.15,2.62,7.64,3.13A10.14,10.14,0,0,1,896,86.54c-.41-1-1.23-3-.34-4.61,1.35-2.41,6.35-3.2,9.2-.69,2.44,2.16,2.85,6.32.52,9.43a6.75,6.75,0,0,1,4.29-6.36,5.92,5.92,0,0,1,5.54.75c2.62,2.06,2.8,6.53.69,9.21S909.2,97.72,905.74,95.28Z" style="fill:url(#radial-gradient-65)"/><path d="M822.52,198.08A6.49,6.49,0,0,0,824,197a6.72,6.72,0,0,0,0,.77,4.44,4.44,0,0,0,8.87-.27,5.55,5.55,0,0,0-.19-1.17,5.07,5.07,0,0,0,.45.33,4.44,4.44,0,1,0,5-7.34,6.84,6.84,0,0,0-1.79-.79,11.15,11.15,0,0,0,1.23-.46,4.44,4.44,0,0,0-3.69-8.07,9.66,9.66,0,0,0-3,2.55,13,13,0,0,0,.26-2.66,4.44,4.44,0,1,0-8.87.27,5.47,5.47,0,0,0,.21,1.29,4.44,4.44,0,0,0-4.7,7.52,6.71,6.71,0,0,0,1.65.75c-.25.09-.48.19-.68.28a4.44,4.44,0,1,0,3.74,8.05Z" style="fill:url(#radial-gradient-66)"/><path d="M816.74,200.4a9.5,9.5,0,0,0,6,1.29,5.74,5.74,0,0,0,4-1.78,4.51,4.51,0,0,0,.59-5c-1.58-2.45-5.93-1.34-6.53-1.19a9.49,9.49,0,0,0-4.68,2.92c2.36-.76,3.92-2.66,3.85-4.43-.1-2.59-3.63-3.68-5.41-3.86-.8-.08-2.62-.27-3.48.79s-.52,3.56,1.44,5.63a6.31,6.31,0,0,0-3.38-4.47,4.09,4.09,0,0,0-3.51-.1,4,4,0,0,0-2,3.62c.13,2.25,2.8,4.42,6.69,4.72-.24-.07-2.79-.84-4.51.66a4.8,4.8,0,0,0-1.36,3.16c-.33,2.19,0,5.67,1.53,6.18s4.22-1.89,6.39-6c-1.66,1.94-2.16,4.35-1.24,5.82,1.38,2.2,5.55,1.69,7.78-.06a4.45,4.45,0,0,0,1.85-2.93C821,203.37,819.38,201.31,816.74,200.4Z" style="fill:url(#radial-gradient-67)"/><path d="M820.68,183.91a5.46,5.46,0,0,0,1.41-.88c0,.26,0,.51,0,.73a5.24,5.24,0,0,0,4.85,4.45,3.55,3.55,0,0,0,3.89-4,5.14,5.14,0,0,0-.27-1.12l.47.35c2.12,1.46,4.8,1.18,6-.64s.47-4.49-1.64-6a8,8,0,0,0-1.83-.89,9.55,9.55,0,0,0,1.18-.34c2.12-.8,2.89-3.22,1.71-5.42a5.09,5.09,0,0,0-6-2.54,7.45,7.45,0,0,0-2.74,2.2,12.07,12.07,0,0,0,.05-2.52,5.26,5.26,0,0,0-4.85-4.44,3.55,3.55,0,0,0-3.9,4,6.12,6.12,0,0,0,.31,1.25c-2.06-1.26-4.56-.92-5.71.83s-.46,4.49,1.65,5.95a7.81,7.81,0,0,0,1.69.84l-.65.21c-2.12.81-2.87,3.25-1.67,5.44A5.07,5.07,0,0,0,820.68,183.91Z" style="fill:url(#radial-gradient-68)"/><path d="M848.37,189.59a9.55,9.55,0,0,1,5,1.43c1.83,1.15,4.84,4,4,6.79s-5.46,4.48-8.52,3a6.93,6.93,0,0,1-3.36-4.45,7.76,7.76,0,0,1,.23-4.87c.19,0,.77,4.76-1.62,8.47-.71,1.1-2,3.14-3.87,3.08s-3.22-2.08-3.66-3.6c-.89-3.05,1.3-6.95,5.5-9.74a9.34,9.34,0,0,1-6,2.52c-1.22,0-3.57.09-4.84-1.64a4.69,4.69,0,0,1-.17-4.83c1.27-2.42,4.24-2.73,5.11-2.83,4.14-.44,7.16,2.63,7.64,3.13a10.13,10.13,0,0,1-5.26-5.23c-.41-1-1.23-3-.35-4.6,1.36-2.42,6.36-3.21,9.21-.69,2.44,2.15,2.85,6.32.51,9.43a6.76,6.76,0,0,1,4.29-6.36,5.94,5.94,0,0,1,5.55.75c2.62,2.05,2.8,6.52.69,9.21S851.82,192,848.37,189.59Z" style="fill:url(#radial-gradient-69)"/><path d="M965,113.94a9.52,9.52,0,0,1-2-4.82c-.23-2.15.14-6.27,2.83-7.37s6.9,1.51,7.66,4.82A6.91,6.91,0,0,1,972.1,112a7.81,7.81,0,0,1-4,2.84c-.1-.16,3.27-3.56,7.66-4,1.3-.12,3.72-.35,4.82,1.13s.35,3.82-.57,5.11c-1.84,2.58-6.26,3.27-11.06,1.7a9.37,9.37,0,0,1,5.67,3.12c.78.94,2.27,2.74,1.7,4.82a4.69,4.69,0,0,1-3.68,3.12c-2.69.49-4.78-1.65-5.39-2.27-2.91-3-2.37-7.25-2.27-7.94a10.14,10.14,0,0,1-.85,7.37c-.54,1-1.61,2.84-3.4,3.12-2.74.43-6.45-3-6.24-6.8.18-3.25,3.2-6.15,7.09-6.24a6.75,6.75,0,0,1-7.65.56,5.9,5.9,0,0,1-2.84-4.82c0-3.33,3.39-6.23,6.8-6.23C961.48,106.57,964.79,109.71,965,113.94Z" style="fill:url(#radial-gradient-70)"/><path d="M917.17,97.94a11.34,11.34,0,0,0-5.56,4.65,6.55,6.55,0,0,0-1.17,5,5.34,5.34,0,0,0,4.39,4.07c3.48.25,5.56-4.57,5.85-5.24a10.74,10.74,0,0,0,.59-6.39c-1,2.72-.29,5.51,1.46,6.69,2.55,1.71,6.14-.8,7.61-2.33.66-.69,2.15-2.24,1.75-3.78-.43-1.69-3-3-6.43-2.62.47.22,3.77,1.66,6.73,0a4.85,4.85,0,0,0,2.63-3.2,4.61,4.61,0,0,0-2-4.36c-2.25-1.46-6.26-.5-9.36,2.91.24-.17,2.82-2,2.63-4.65a5.5,5.5,0,0,0-2-3.49c-1.86-1.84-5.42-4-7-2.91s-1.24,5.25,1.17,10.18c-.66-2.91-2.61-5.06-4.68-5.24-3.1-.26-5.63,4-5.56,7.27a5.08,5.08,0,0,0,1.46,3.78C911.28,99.77,914.4,99.75,917.17,97.94Z" style="fill:url(#radial-gradient-71)"/><path d="M947.55,122.77a10.4,10.4,0,0,1-2.74-5.48c-.18-1.22-.57-3.81.91-4.88,1.29-.92,3.4-.28,4.57.61,2.18,1.67,2.7,5.46,1.22,9.44,1.24-6,2.73-6.64,3.35-6.7,2.34-.22,6.67,6.14,4.26,10-1.69,2.74-5.73,2.75-6.09,2.74a9.33,9.33,0,0,1,3.35,4,6,6,0,0,1,.61,4.26c-.83,2.53-4.3,4.42-6.7,3.35s-3.73-5.07-1.52-8.52c-1.13,4.75-3.45,7.8-5.18,7.61-2-.23-4.32-5-2.43-8.22a6.31,6.31,0,0,1,4.56-2.74,5.58,5.58,0,0,1-2.74,0,5,5,0,0,1-3-2.13c-1.06-1.88-.65-5,1.52-6.09A4.55,4.55,0,0,1,947.55,122.77Z" style="fill:url(#radial-gradient-72)"/><path d="M994.77,99.47a7.3,7.3,0,0,0-2-.6c.26-.18.49-.36.69-.52a5,5,0,0,0-6.37-7.6,6.63,6.63,0,0,0-.9,1,6.12,6.12,0,0,0,0-.62,5,5,0,1,0-9.88.7,7.36,7.36,0,0,0,.54,2.11,13.56,13.56,0,0,0-1.25-.76,5,5,0,0,0-4.53,8.82,10.71,10.71,0,0,0,4.3.84,13.77,13.77,0,0,0-2.52,1.62,5,5,0,0,0,6.37,7.59,6.63,6.63,0,0,0,1-1.08,5,5,0,0,0,9.85-1.07,7.53,7.53,0,0,0-.49-2,8,8,0,0,0,.72.41,5,5,0,0,0,4.48-8.84Z" style="fill:url(#radial-gradient-73)"/><path d="M993.15,93.49a11.28,11.28,0,0,0-5.56,4.65,6.53,6.53,0,0,0-1.17,4.94,5.33,5.33,0,0,0,4.39,4.07c3.48.26,5.56-4.56,5.85-5.23a10.77,10.77,0,0,0,.59-6.4c-1,2.72-.29,5.51,1.46,6.69,2.55,1.72,6.14-.8,7.61-2.32.66-.69,2.15-2.24,1.75-3.78-.43-1.7-3-3-6.43-2.62.47.22,3.77,1.66,6.73,0a4.87,4.87,0,0,0,2.63-3.2,4.61,4.61,0,0,0-2-4.36c-2.25-1.46-6.26-.5-9.36,2.91.24-.17,2.82-2,2.63-4.66a5.53,5.53,0,0,0-2.05-3.49c-1.86-1.83-5.42-4-7-2.9S991.91,83,994.32,88c-.66-2.9-2.61-5.06-4.68-5.23-3.11-.26-5.63,4-5.56,7.27a5.1,5.1,0,0,0,1.46,3.78C987.26,95.32,990.38,95.3,993.15,93.49Z" style="fill:url(#radial-gradient-74)"/><path d="M968,99a9.52,9.52,0,0,1-2-4.82c-.23-2.15.13-6.27,2.83-7.38s6.9,1.51,7.66,4.82A6.92,6.92,0,0,1,975.1,97a7.92,7.92,0,0,1-4,2.84c-.1-.16,3.26-3.56,7.65-4,1.31-.13,3.73-.35,4.82,1.13s.36,3.82-.56,5.1c-1.85,2.58-6.26,3.28-11.06,1.71a9.37,9.37,0,0,1,5.67,3.11c.78.94,2.27,2.75,1.7,4.83a4.69,4.69,0,0,1-3.68,3.11c-2.69.5-4.78-1.64-5.39-2.26-2.91-3-2.37-7.25-2.27-7.94a10.14,10.14,0,0,1-.85,7.37c-.54,1-1.62,2.83-3.4,3.12-2.74.43-6.45-3-6.24-6.81.18-3.24,3.2-6.14,7.09-6.24a6.75,6.75,0,0,1-7.66.57,5.92,5.92,0,0,1-2.83-4.82c0-3.33,3.39-6.23,6.8-6.24C964.48,91.58,967.79,94.73,968,99Z" style="fill:url(#radial-gradient-75)"/></g><g id="mountain-4" data-name="mountain"><path d="M-48.67,499,39,485l130.39,45.34L326.47,539,495.33,675-35.84,663.13Q-42.26,581.08-48.67,499Z" style="fill:url(#linear-gradient-51)"/><path d="M-4.67,492l169,62,107-16,101,67-380,21Z" style="opacity:0.11;fill:url(#linear-gradient-52)"/><path d="M-7.67,606q1-45.5,2-91l159,72,107,17Z" style="opacity:0.11;fill:url(#linear-gradient-53)"/><path d="M39.33,485l122,68,117-17-109-6Z" style="opacity:0.25;fill:url(#linear-gradient-54)"/><path d="M326.33,539q24.51,37.5,49,75l33-9Z" style="opacity:0.25;fill:url(#linear-gradient-55)"/></g></g></svg>