<svg xmlns="http://www.w3.org/2000/svg" xmlns:xlink="http://www.w3.org/1999/xlink" viewBox="0 0 1066.67 600"><defs><linearGradient id="linear-gradient" x1="533.33" y1="-188.06" x2="533.33" y2="877.94" gradientUnits="userSpaceOnUse"><stop offset="0.19" stop-color="#000c1c"/><stop offset="0.32" stop-color="#092447"/><stop offset="0.49" stop-color="#123e74"/><stop offset="0.63" stop-color="#195195"/><stop offset="0.76" stop-color="#1d5ca9"/><stop offset="0.84" stop-color="#1f60b0"/></linearGradient><linearGradient id="linear-gradient-2" x1="1040.54" y1="408.4" x2="460.71" y2="-70.21" gradientUnits="userSpaceOnUse"><stop offset="0.29" stop-color="#0f2430"/><stop offset="0.66" stop-color="#3f5273"/></linearGradient><linearGradient id="linear-gradient-3" x1="773.71" y1="15.19" x2="340.13" y2="283.31" xlink:href="#linear-gradient-2"/><linearGradient id="linear-gradient-4" x1="-16.77" y1="-23.74" x2="333.35" y2="160.1" xlink:href="#linear-gradient-2"/><linearGradient id="linear-gradient-5" x1="598.5" y1="-48" x2="225.41" y2="200.04" xlink:href="#linear-gradient-2"/><linearGradient id="linear-gradient-6" x1="141.85" y1="442.86" x2="367.04" y2="-19.18" xlink:href="#linear-gradient-2"/><linearGradient id="linear-gradient-7" x1="529.6" y1="62.91" x2="841.2" y2="690.87" gradientUnits="userSpaceOnUse"><stop offset="0" stop-color="#f9f8ea"/><stop offset="0.26" stop-color="#5e6168"/><stop offset="0.4" stop-color="#070c1f"/><stop offset="0.89" stop-color="#04040f"/></linearGradient><linearGradient id="linear-gradient-8" x1="359.82" y1="-199.64" x2="359.82" y2="592.69" gradientUnits="userSpaceOnUse"><stop offset="0.01" stop-color="#f9f8ed"/><stop offset="0.42" stop-color="#5e626e"/><stop offset="0.63" stop-color="#10162e"/><stop offset="0.74" stop-color="#0c1014"/></linearGradient><linearGradient id="linear-gradient-9" x1="218.83" y1="3.45" x2="218.83" y2="505.7" gradientUnits="userSpaceOnUse"><stop offset="0.06" stop-color="#f9f9f4"/><stop offset="0.11" stop-color="#f7f9f6" stop-opacity="0.82"/><stop offset="0.18" stop-color="#f6f8f8" stop-opacity="0.63"/><stop offset="0.25" stop-color="#f4f8fa" stop-opacity="0.46"/><stop offset="0.32" stop-color="#f3f8fb" stop-opacity="0.32"/><stop offset="0.39" stop-color="#f2f7fd" stop-opacity="0.2"/><stop offset="0.47" stop-color="#f1f7fe" stop-opacity="0.11"/><stop offset="0.56" stop-color="#f0f7fe" stop-opacity="0.05"/><stop offset="0.65" stop-color="#f0f7ff" stop-opacity="0.01"/><stop offset="0.79" stop-color="#f0f7ff" stop-opacity="0"/></linearGradient><linearGradient id="linear-gradient-10" x1="489.33" y1="-46.95" x2="489.33" y2="567.26" gradientUnits="userSpaceOnUse"><stop offset="0.06" stop-color="#f9f9f4"/><stop offset="0.12" stop-color="#f9f9f4" stop-opacity="0.98"/><stop offset="0.19" stop-color="#f8f9f5" stop-opacity="0.92"/><stop offset="0.27" stop-color="#f7f9f6" stop-opacity="0.83"/><stop offset="0.34" stop-color="#f6f8f7" stop-opacity="0.7"/><stop offset="0.42" stop-color="#f5f8f9" stop-opacity="0.53"/><stop offset="0.51" stop-color="#f3f8fb" stop-opacity="0.32"/><stop offset="0.59" stop-color="#f1f7fe" stop-opacity="0.08"/><stop offset="0.62" stop-color="#f0f7ff" stop-opacity="0"/></linearGradient><linearGradient id="linear-gradient-11" x1="515.28" y1="75.59" x2="648.9" y2="397.55" xlink:href="#linear-gradient-10"/><linearGradient id="linear-gradient-12" x1="637.96" y1="253.55" x2="676.06" y2="345.34" xlink:href="#linear-gradient-10"/><linearGradient id="linear-gradient-13" x1="160.14" y1="166.7" x2="495.23" y2="842.02" gradientUnits="userSpaceOnUse"><stop offset="0.09" stop-color="#0d0d30"/><stop offset="0.89" stop-color="#020408"/></linearGradient><linearGradient id="linear-gradient-14" x1="404.33" y1="129.58" x2="140.94" y2="754.88" gradientUnits="userSpaceOnUse"><stop offset="0.12" stop-color="#f9f9f4"/><stop offset="0.42" stop-color="#04192b"/><stop offset="0.71" stop-color="#081821"/></linearGradient><linearGradient id="linear-gradient-15" x1="506.75" y1="-597.89" x2="-538.31" y2="1883.05" gradientUnits="userSpaceOnUse"><stop offset="0" stop-color="#0c0e14"/><stop offset="0.09" stop-color="#090b0f" stop-opacity="0.98"/><stop offset="0.1" stop-color="#090b0f" stop-opacity="0.98"/><stop offset="0.41" stop-color="#04060a" stop-opacity="0.25"/><stop offset="0.75" stop-color="#020408" stop-opacity="0"/><stop offset="0.83" stop-color="#122038" stop-opacity="0"/></linearGradient><linearGradient id="linear-gradient-16" x1="840.09" y1="-686.01" x2="164.03" y2="918.95" gradientUnits="userSpaceOnUse"><stop offset="0.37" stop-color="#264f6b"/><stop offset="0.71" stop-color="#172f40"/></linearGradient><linearGradient id="linear-gradient-17" x1="144.85" y1="152.08" x2="43.76" y2="392.07" xlink:href="#linear-gradient-10"/><linearGradient id="linear-gradient-18" x1="425.35" y1="131.74" x2="255.33" y2="535.37" xlink:href="#linear-gradient-10"/><linearGradient id="linear-gradient-19" x1="234.3" y1="201.66" x2="118.62" y2="476.28" xlink:href="#linear-gradient-10"/><linearGradient id="linear-gradient-20" x1="188.55" y1="-15.88" x2="-36.5" y2="518.4" xlink:href="#linear-gradient-10"/><linearGradient id="linear-gradient-21" x1="382.73" y1="92" x2="182.45" y2="567.46" xlink:href="#linear-gradient-10"/><linearGradient id="linear-gradient-22" x1="595.13" y1="-91.86" x2="928.09" y2="874.6" gradientUnits="userSpaceOnUse"><stop offset="0.12" stop-color="#f9f9f4"/><stop offset="0.45" stop-color="#04192b"/><stop offset="0.71" stop-color="#081821"/></linearGradient><linearGradient id="linear-gradient-23" x1="692.9" y1="298.87" x2="790.82" y2="583.08" xlink:href="#linear-gradient-15"/><linearGradient id="linear-gradient-24" x1="886.57" y1="142.23" x2="1053.98" y2="628.14" xlink:href="#linear-gradient-15"/><linearGradient id="linear-gradient-25" x1="899.9" y1="247.14" x2="956.72" y2="412.05" xlink:href="#linear-gradient-15"/><linearGradient id="linear-gradient-26" x1="526.89" y1="174.79" x2="639.47" y2="501.57" xlink:href="#linear-gradient-10"/><linearGradient id="linear-gradient-27" x1="839.45" y1="24.65" x2="958.2" y2="369.35" xlink:href="#linear-gradient-10"/><linearGradient id="linear-gradient-28" x1="769.84" y1="125.96" x2="857.31" y2="379.86" xlink:href="#linear-gradient-10"/><linearGradient id="linear-gradient-29" x1="719.25" y1="172.52" x2="810.64" y2="437.8" xlink:href="#linear-gradient-10"/><linearGradient id="linear-gradient-30" x1="621.1" y1="243.82" x2="689.53" y2="442.44" xlink:href="#linear-gradient-10"/><linearGradient id="linear-gradient-31" x1="667.81" y1="229.55" x2="740.24" y2="439.78" xlink:href="#linear-gradient-10"/><linearGradient id="linear-gradient-32" x1="859.89" y1="95.78" x2="948.88" y2="354.09" xlink:href="#linear-gradient-10"/><linearGradient id="linear-gradient-33" x1="829.14" y1="191.33" x2="885.84" y2="355.9" xlink:href="#linear-gradient-10"/><linearGradient id="linear-gradient-34" x1="799.06" y1="239.89" x2="845.59" y2="374.96" xlink:href="#linear-gradient-10"/><linearGradient id="linear-gradient-35" x1="807.49" y1="224.9" x2="849.07" y2="345.59" xlink:href="#linear-gradient-10"/><linearGradient id="linear-gradient-36" x1="557.4" y1="336.94" x2="593.64" y2="442.14" xlink:href="#linear-gradient-10"/><linearGradient id="linear-gradient-37" x1="339.65" y1="299.8" x2="536.05" y2="299.8" gradientUnits="userSpaceOnUse"><stop offset="0.11" stop-color="#aac1c0"/><stop offset="0.5" stop-color="#260909"/><stop offset="0.83" stop-color="#05061c"/></linearGradient><linearGradient id="linear-gradient-38" x1="355.55" y1="292.15" x2="553.16" y2="292.15" gradientUnits="userSpaceOnUse"><stop offset="0.16" stop-color="#f9f6d9"/><stop offset="0.16" stop-color="#f5f2d6"/><stop offset="0.26" stop-color="#aead9a"/><stop offset="0.35" stop-color="#727369"/><stop offset="0.44" stop-color="#444642"/><stop offset="0.51" stop-color="#232526"/><stop offset="0.58" stop-color="#0e1115"/><stop offset="0.62" stop-color="#070a0f"/><stop offset="0.94" stop-color="#0a0c14"/></linearGradient><linearGradient id="linear-gradient-39" x1="344.26" y1="416.97" x2="543.33" y2="416.97" xlink:href="#linear-gradient-37"/><linearGradient id="linear-gradient-40" x1="348.96" y1="353.92" x2="692.71" y2="348.37" gradientUnits="userSpaceOnUse"><stop offset="0.11" stop-color="#aac1c0"/><stop offset="0.5" stop-color="#260909"/><stop offset="0.84" stop-color="#070726"/></linearGradient><linearGradient id="linear-gradient-41" x1="502" y1="358.39" x2="903.39" y2="358.39" xlink:href="#linear-gradient-37"/><linearGradient id="linear-gradient-42" x1="407.2" y1="174.26" x2="624.57" y2="174.26" xlink:href="#linear-gradient-40"/><linearGradient id="linear-gradient-43" x1="640.96" y1="162.68" x2="853.48" y2="162.68" gradientUnits="userSpaceOnUse"><stop offset="0.11" stop-color="#aac1c0"/><stop offset="0.5" stop-color="#260909"/><stop offset="0.84" stop-color="#05051a"/></linearGradient><linearGradient id="linear-gradient-44" x1="48.02" y1="142.59" x2="1087.01" y2="142.59" gradientUnits="userSpaceOnUse"><stop offset="0.11" stop-color="#aac1c0"/><stop offset="0.31" stop-color="#260909"/><stop offset="0.84" stop-color="#070726"/></linearGradient><linearGradient id="linear-gradient-45" x1="-84.18" y1="119.37" x2="937.84" y2="119.37" gradientUnits="userSpaceOnUse"><stop offset="0.11" stop-color="#aac1c0"/><stop offset="0.5" stop-color="#260909"/><stop offset="0.84" stop-color="#03030d"/></linearGradient><linearGradient id="linear-gradient-46" x1="126.8" y1="95.85" x2="984.58" y2="95.85" gradientUnits="userSpaceOnUse"><stop offset="0" stop-color="#f9f7de"/><stop offset="0.12" stop-color="#b3b2a3"/><stop offset="0.23" stop-color="#787871"/><stop offset="0.33" stop-color="#494b4a"/><stop offset="0.42" stop-color="#282a2e"/><stop offset="0.49" stop-color="#13161d"/><stop offset="0.54" stop-color="#0c0f17"/><stop offset="0.94" stop-color="#0a0c14"/></linearGradient><linearGradient id="linear-gradient-47" x1="12.52" y1="74.22" x2="922.25" y2="74.22" gradientUnits="userSpaceOnUse"><stop offset="0" stop-color="#f9f6de"/><stop offset="0.1" stop-color="#b3b4a4"/><stop offset="0.19" stop-color="#787b73"/><stop offset="0.28" stop-color="#494f4d"/><stop offset="0.35" stop-color="#282f31"/><stop offset="0.42" stop-color="#131c20"/><stop offset="0.46" stop-color="#0c151a"/><stop offset="1" stop-color="#040508"/></linearGradient><linearGradient id="linear-gradient-48" x1="469.57" y1="300.73" x2="718.83" y2="300.73" xlink:href="#linear-gradient-37"/><linearGradient id="linear-gradient-49" x1="512.04" y1="291.27" x2="663.82" y2="291.27" xlink:href="#linear-gradient-38"/><linearGradient id="linear-gradient-50" x1="559.54" y1="415.45" x2="662.74" y2="415.45" xlink:href="#linear-gradient-37"/><linearGradient id="linear-gradient-51" x1="593.76" y1="299.27" x2="831.71" y2="299.27" xlink:href="#linear-gradient-37"/><linearGradient id="linear-gradient-52" x1="608.5" y1="288.84" x2="767.72" y2="288.84" xlink:href="#linear-gradient-38"/><linearGradient id="linear-gradient-53" x1="638.67" y1="425.9" x2="766.53" y2="425.9" xlink:href="#linear-gradient-37"/><linearGradient id="linear-gradient-54" x1="733.72" y1="304.59" x2="958.87" y2="304.59" xlink:href="#linear-gradient-37"/><linearGradient id="linear-gradient-55" x1="753.42" y1="295.13" x2="907.47" y2="295.13" xlink:href="#linear-gradient-38"/><linearGradient id="linear-gradient-56" x1="756.07" y1="419.28" x2="925.22" y2="419.33" xlink:href="#linear-gradient-37"/><linearGradient id="linear-gradient-57" x1="339.71" y1="342.61" x2="727.29" y2="342.61" gradientUnits="userSpaceOnUse"><stop offset="0.4" stop-color="#1c0804"/><stop offset="0.63" stop-color="#050b1a"/></linearGradient><linearGradient id="linear-gradient-58" x1="335.86" y1="449.84" x2="732.21" y2="449.84" gradientUnits="userSpaceOnUse"><stop offset="0.4" stop-color="#1c0804"/><stop offset="0.6" stop-color="#010114"/></linearGradient><linearGradient id="linear-gradient-59" x1="413.38" y1="344.54" x2="824.03" y2="344.54" gradientUnits="userSpaceOnUse"><stop offset="0.4" stop-color="#1c0804"/><stop offset="0.58" stop-color="#030326"/></linearGradient><linearGradient id="linear-gradient-60" x1="489.31" y1="449.16" x2="721.38" y2="449.16" gradientUnits="userSpaceOnUse"><stop offset="0.4" stop-color="#1c0804"/><stop offset="0.6" stop-color="#03031c"/></linearGradient><linearGradient id="linear-gradient-61" x1="634.53" y1="337.11" x2="855.38" y2="337.11" xlink:href="#linear-gradient-57"/><linearGradient id="linear-gradient-62" x1="604.11" y1="453.34" x2="881.43" y2="453.34" xlink:href="#linear-gradient-57"/><linearGradient id="linear-gradient-63" x1="654.58" y1="337.78" x2="933.46" y2="337.78" xlink:href="#linear-gradient-57"/><linearGradient id="linear-gradient-64" x1="657.25" y1="452.38" x2="960.19" y2="452.38" xlink:href="#linear-gradient-57"/><linearGradient id="linear-gradient-65" x1="343.78" y1="341.65" x2="595.67" y2="341.65" gradientUnits="userSpaceOnUse"><stop offset="0.4" stop-color="#1c0804"/><stop offset="0.6" stop-color="#030326"/></linearGradient><linearGradient id="linear-gradient-66" x1="328.22" y1="449.16" x2="518.5" y2="449.16" gradientUnits="userSpaceOnUse"><stop offset="0.5" stop-color="#1c0804"/><stop offset="0.94" stop-color="#030326"/></linearGradient><linearGradient id="linear-gradient-67" x1="632.54" y1="338.43" x2="756.78" y2="338.43" gradientUnits="userSpaceOnUse"><stop offset="0.4" stop-color="#1c0804"/><stop offset="1" stop-color="#030326"/></linearGradient><linearGradient id="linear-gradient-68" x1="629.1" y1="453.02" x2="799.83" y2="453.02" xlink:href="#linear-gradient-65"/><linearGradient id="linear-gradient-69" x1="247.09" y1="213.44" x2="1063.01" y2="213.44" gradientUnits="userSpaceOnUse"><stop offset="0.21" stop-color="#0a0202"/><stop offset="0.77"/></linearGradient><linearGradient id="linear-gradient-70" x1="183.86" y1="214.8" x2="1113.85" y2="219.03" xlink:href="#linear-gradient-44"/><linearGradient id="linear-gradient-71" x1="25.65" y1="202.05" x2="842.31" y2="202.05" xlink:href="#linear-gradient-45"/><linearGradient id="linear-gradient-72" x1="398.33" y1="102.44" x2="969.4" y2="102.44" gradientUnits="userSpaceOnUse"><stop offset="0.11" stop-color="#171d2b"/><stop offset="0.53" stop-color="#0a0c14"/><stop offset="0.91" stop-color="#010203"/></linearGradient><linearGradient id="linear-gradient-73" x1="865.94" y1="47.2" x2="958.57" y2="50.97" gradientUnits="userSpaceOnUse"><stop offset="0" stop-color="#f9ee8a"/><stop offset="0.05" stop-color="#ddda88"/><stop offset="0.15" stop-color="#a2b183"/><stop offset="0.25" stop-color="#749080"/><stop offset="0.34" stop-color="#53797d"/><stop offset="0.41" stop-color="#3e6a7c"/><stop offset="0.46" stop-color="#37657b"/><stop offset="1" stop-color="#131824"/></linearGradient></defs><title>Itsukishima Gate - Japan night</title><g id="sky"><g id="sky-2" data-name="sky"><rect x="0.33" y="-2" width="1066" height="600" style="fill:url(#linear-gradient)"/></g><g id="highlights"><path d="M-30.67,6C-9,21.28,22.58,42.47,62.33,65c0,0,157.75,92.64,314,120,168,29.42,441.77-23.25,702-209l6,58a747.64,747.64,0,0,1-132,97c-203.08,117.28-406.6,105.72-474,101-64.22-4.49-113.48-16-212-39a2568.73,2568.73,0,0,1-328-100Q-46.16,49.5-30.67,6Z" style="fill:#0a3454;opacity:0.53"/><path d="M819.33-18a425.5,425.5,0,0,1-64,65c-102.1,83.47-218,98.16-276,101a467.21,467.21,0,0,0,122,10c181.95-9.26,306.56-124.49,350-169Z" style="fill:#b7e0ed;opacity:0.24"/></g><g id="clouds"><g id="_3" data-name="3"><path d="M561.33,331c1.45-25.53,15.69-46.87,36-54,13.51-4.74,25.95-1.89,32,0-1.14-5.42-2.88-17.86,4-28,10.43-15.37,37.27-20.45,63-7q25-39.37,34-36,5.64,2.12,5,21c11.31-37.53,34.48-57.55,50-54,1.89.43,11.75,3.06,19,22,18.36-36.82,52.52-56.86,82-51,16.25,3.23,27.61,13.63,34,21,3.64-23.91,10.21-57.89,19-58,3.29,0,9.81,4.62,18,44,7.08-20.71,23.85-36.27,44-40,26.53-4.9,55,11.41,66,40,20.9-10.25,32.89-7.66,39-5,28.69,12.48,37.63,74.29,17,155Z" style="opacity:0.74;fill:url(#linear-gradient-2)"/></g><g id="_2" data-name="2"><path d="M523.56,126c32.34-5.56,78.36-13.66,133.6-24C720.82,90.07,796,76,795.27,73.05,795,72,784.49,72,738.4,77.28q96.06-27.95,93.89-33.89-1.72-4.68-64.1,4.24Q773,33.26,767.29,30q-10.92-6.32-60.48,28.24c.22-7.93-.25-21.26-6.32-22.6-8.8-1.94-24.32,22.44-27.08,26.83-1.7-4.32-10.69-26-28.89-28.94C624,30.2,593.08,51.08,582.24,90c-.79-3.3-4.67-18.61-11.74-19.06-6.21-.4-13.69,10.73-19,27.53-9.22-4.65-20.82-4.17-28,.71C514.5,105.34,513.55,117.81,523.56,126Z" style="opacity:0.74;fill:url(#linear-gradient-3)"/><path d="M-21.67,2c3.23,6.13,8.24,12.79,42,34,24.49,15.38,31.61,15.6,61,31,37.07,19.42,55.29,33.23,58,30,1.32-1.57-1-7.21-17-25q70,39.61,73,35,2.91-4.4-55-49c-6.43-23.25-19.42-36.55-29-35-1.68.27-6.4,1.52-11,10q-18.43-48.67-27-47-5.62,1.11-7,24-30.11-54.6-41-51-7.17,2.37-6,30c-15.22-26.51-31.24-44.11-40-41C-30.34-48.56-32.86-19.24-21.67,2Z" style="opacity:0.74;fill:url(#linear-gradient-4)"/><path d="M359.33,111c14.48-5.22,35.27-13,60-23C504.09,53.56,586,11.86,584.33,8c-.55-1.26-10.39.93-53,17q22.15-32.14,18-36-5.21-4.85-52,35-1.71-20.44-6-21-5.71-.74-16,34c-.77-.73-6.77-6.24-15-5-7.31,1.1-13.38,7.09-15,15-.29-9.33-1.65-28.09-9-30-11.24-2.93-29.34,35.43-31,39q-.76-18.15-5-19-6.22-1.24-20,35c-2.62-4.62-6.19-9.27-10-9-7.63.55-15.15,20.9-9,28,5.61,6.46,20.86,0,22,3C384,95.73,379.79,100,359.33,111Z" style="opacity:0.74;fill:url(#linear-gradient-5)"/></g><g id="_1" data-name="1"><path d="M-20.67,152l6,152a1260.76,1260.76,0,0,0,241,46,1261.42,1261.42,0,0,0,267-4c-7.88-39.83-36.89-65.37-64-64-17.73.89-30.6,13.1-36,19-5.55-6.76-41.75-50.26-58-42-3.17,1.61-7.64,6.25-8,22q-37.21-86.82-55-83-14.2,3-16,64c-1.48-3.34-14.86-33.1-24-31-1.4.32-6.3,2.22-8,21-6.33-18.73-22.29-28.81-35-26-9,2-14.26,10-16,13-15-58.42-43.41-93.24-62-90-16.3,2.84-28.19,35.53-31,75-4.89-17.92-20.32-25.58-29-22-6.36,2.63-10.34,11.8-10,22,9.87-22,4.74-47.25-12-62C8.52,143.66-19,151.5-20.67,152Z" style="opacity:0.74;fill:url(#linear-gradient-6)"/></g></g><g id="stars"><circle cx="389.83" cy="144.5" r="2.5" style="fill:#fffce9"/><circle cx="505.33" cy="67" r="3" style="fill:#fffce9"/><circle cx="592.83" cy="20.5" r="2.5" style="fill:#fffce9"/><circle cx="412.83" cy="170.5" r="1.5" style="fill:#fffce9"/><circle cx="358.33" cy="26" r="3" style="fill:#fffce9"/><circle cx="186.83" cy="193.5" r="2.5" style="fill:#fffce9"/><circle cx="174.83" cy="37.5" r="3.5" style="fill:#fffce9"/><circle cx="905.83" cy="31.5" r="2.5" style="fill:#fffce9"/><circle cx="939.33" cy="22" r="2" style="fill:#fffce9"/></g><g id="moon"><circle cx="271.33" cy="94" r="36" style="fill:#fffce9"/><circle cx="257.15" cy="95.09" r="5.09" style="fill:#edeada"/><circle cx="264.42" cy="76.18" r="2.18" style="fill:#edeada"/><circle cx="265.15" cy="114.73" r="8.73" style="fill:#edeada"/></g></g><g id="background"><g id="water"><rect x="-5.67" y="422" width="1078" height="209" style="fill:#0b3456"/><path d="M-20.67,516c-.28-.37-13.11,8.73-26,18,43.81-2.28,106.13-4.57,181-4,111.83.85,237,8,237,14-.05,9.7-323.91,10.93-324,21-.09,10.62,360.5,9.22,361,26,.6,19.94-506.78,69.75-520,8C-117.74,570.64-19.93,517-20.67,516Z" style="fill:#051c38;opacity:0.6900000000000001"/><path d="M-85.67,439c0-9.87,1157.77-22,1158-5,.13,9.42-356.19,18.24-356,31,.2,13.4,393,15.69,393,24,0,4.1-95.88,5.55-256,12-261,10.51-421.53,23.38-422,18-.55-6.36,223.54-28.84,223-35-1-11-719.94,42-723,12-1-9.53,70.73-23,69-38C-1.52,442-85.67,441.66-85.67,439Z" style="fill:#04223f"/><path d="M198.33,532c112.46,0,247,4.9,247,8-.07,6.09-520.88,8.16-521,2C-75.73,538.76,68,532,198.33,532Z" style="fill:#194284;opacity:0.39"/><path d="M1093.33,576c-253,6.16-482.53,37.1-482,43,.87,9.6,611.42-34.71,611-43C1222.17,572.86,1134.65,575,1093.33,576Z" style="fill:#194284"/><path d="M468.33,517c-29.47-1-54,2.42-54,4,.05,1.84,33.66,1,34,5,.32,3.63-27.29,8.1-27,10,.4,2.6,52.72-3.93,53-2,.19,1.29-23.14,5-23,6,.23,1.57,59.13-4.27,59-9-.06-2.39-15.12-3.5-15-5,.16-1.92,24.88-.55,25-2S496.78,517.92,468.33,517Z" style="fill:#305489"/><path d="M408.33,526c0-.41,26.61-3.26,27-1,.43,2.44-29.83,9.57-30,9-.12-.42,16.4-4.87,16-7C421,525.17,408.35,526.28,408.33,526Z" style="fill:#305489"/><path d="M524.33,523c12.46,2.07,13.92,3.11,14,4,.36,4-27.18,9-27,10,.3,1.53,81.95-14.33,83-10,.41,1.65-11.36,4.63-11,7,1,6.44,90,.07,90-5,0-4.17-60.09-6.21-60-9,.09-2.63,58.79-.67,59-4,.23-3.52-85.5-11.51-86-8-.18,1.29,11.22,3.28,11,5-.34,2.71-28.91-.23-69,2-20.85,1.16-33,3.07-33,4S506.21,520,524.33,523Z" style="fill:#305489"/><path d="M707.33,538c-20.48,0-39.07,3.3-39,5,.1,2.18,30.82,1.32,31,4,.24,3.53-53.1,7.16-53,11,.15,5.22,99,7.73,100-1,.3-2.53-7.74-5.2-7-8,1.08-4,18.84-1.7,19-3C758.52,544.53,736.22,538,707.33,538Z" style="fill:#305489"/><path d="M790.33,531c-9.91.48-24.92.29-45,6-3.64,1-20.48,6-20,9,.77,4.76,41.87,1.21,42,3s-40.1,5.58-40,7c.13,1.83,66.63-2.59,67,1,.23,2.18-24.18,5.56-24,7,.34,2.67,85.17-4.8,85-9-.09-2.4-27.85-2.06-28-5-.21-4.45,63.22-10.54,63-13-.16-1.84-35.7.63-36-2s38.14-9.24,38-10-29.76,5.79-32,0c-1.24-3.23,7-7.65,6-10C864.3,510.37,832.89,528.93,790.33,531Z" style="fill:#305489"/><path d="M-92.67,483c451.58,6.17,552.78,1.23,553-5,.3-8-167.33-17.16-167-25,.59-14.11,514.73-8.64,515,5,.16,8-178.21,15.33-178,21,.2,5.31,157.34,4.62,442-1V422l-1139,8q143.81,10.41,144,23Q77.54,466.71-92.67,483Z" style="fill:#051c38;opacity:0.6900000000000001"/><path d="M1190.33,445c1.74-13.29,69-13.64,69-15,0-3.41-421-4.53-421,2,0,5.17,263.73,5.1,264,17,.29,12.4-285.87,16.57-286,33-.1,13.69,198.7.68,374,1,2.16,0,33.38.06,35-8C1227.18,465.84,1189,455.2,1190.33,445Z" style="fill:#072654"/><path d="M22.33,469c.11,2.35,65-.42,223.73-.59,118.55-.12,158.2,1.35,158.27-.41.11-2.73-94.68-12-204-11C105.61,457.89,22.22,466.33,22.33,469Z" style="fill:#0b3456;opacity:0.33"/><path d="M1107.33,517c-108.11,4-181.13,14.58-181,16,.44,4.82,169.61-4.08,170,2,.35,5.35-130.08,17.16-130,18,.13,1.26,289.54-21.78,289-32C1255,515.25,1163.24,515,1107.33,517Z" style="fill:#072654"/><path d="M338.33,554c145.83-5.49,284-1.08,284,3,0,3.82-121.05,5.94-121,9,.06,3.3,172,.9,172,3,0,1.55-93.73,6.66-207,5-107.41-1.57-222.09-9.08-222-14C244.39,556.88,290.54,555.8,338.33,554Z" style="fill:#051c38;opacity:0.6900000000000001"/></g><g id="mountain_back" data-name="mountain back"><path d="M317.33,364c-.28-7.81,24.87-17.72,75-38a506.4,506.4,0,0,1,56-19c1.35-.37,25.44-6.93,50-11,52.78-8.75,101.45-5,116-4,82.51,5.62,96.15-7.87,184-7,74.7.74,218.22,10.87,220,34,2.14,27.7-198.9,75.51-395,82C466.61,406.19,318.09,384.81,317.33,364Z" style="fill:url(#linear-gradient-7)"/><path d="M434.33,320c54.91,26.78,102.31,42.32,118,47,90,26.86,166.9,3.89,167,5,.16,1.61-165,24.91-384,21-41-.73-107.13-2.83-189-24-32.9-8.51-148-38.28-146-67,1.88-26.31,102.43-56.19,166-34,8.29,2.89,25.17,9.89,51,15,8.45,1.67,24.89,4.54,64,6,53.61,2,55.29-2.15,77,1C387,294.16,401.32,303.9,434.33,320Z" style="fill:url(#linear-gradient-8)"/><path d="M50.33,269a143,143,0,0,1,26-5c34.39-3.34,61.1,6.8,82,15a252.41,252.41,0,0,1,63,36,700.87,700.87,0,0,1,166-17,99,99,0,0,0-30-9c-20.77-2.68-30.35,3.17-60,2-5.8-.23-2.16-.32-22-2-39.79-3.36-43.37-2-58-5-12.61-2.55-10.06-3.55-36-11-16.53-4.75-34.53-9.21-44-11C121.06,258.92,92.09,256.53,50.33,269Z" style="fill:url(#linear-gradient-9)"/><path d="M405.33,306c19.58,10.18,40.58,20.27,63,30a997.33,997.33,0,0,0,116,42,170.06,170.06,0,0,0-60,1c-48.79,9.81-63.09,36.27-89,29-23.43-6.58-40.79-36.38-41-64A71.73,71.73,0,0,1,405.33,306Z" style="fill:url(#linear-gradient-10)"/><path d="M422.33,315c4.7-1.6,11.2-3.72,19-6a465,465,0,0,1,81-16c28.72-3,51.48-2.35,97-1,25.87.77,31.88,1.71,50,1,27.17-1.07,37.43-4.14,63-6a439.75,439.75,0,0,1,63,0c-22.56,5.28-55.72,13-96,22-52.35,11.74-78.52,17.61-92,20C566.71,336.21,505.57,339,422.33,315Z" style="fill:url(#linear-gradient-11)"/><path d="M660.33,295q-6,6.81-12,14c-11.29,13.53-21.59,26.91-31,40l96-59Z" style="fill:url(#linear-gradient-12)"/><path d="M18.33,300a190.35,190.35,0,0,1,125,0,204,204,0,0,0,53,24c9.23,2.64,12.22,2.74,49,10,26.13,5.16,39.19,7.74,44,9,28.22,7.4,49.62,17.06,67,25,19.89,9.08,24.62,12.63,36,18,20.2,9.52,50.9,19.84,95,21-31.79,12.27-200.37,73.81-358-13C78.35,365.92,42.44,330,18.33,300Z" style="opacity:0.61;fill:url(#linear-gradient-13)"/></g><g id="mountain_left" data-name="mountain left"><path d="M-15.67,217c20.9,15.45,42.32,32.4,64,51q13.44,11.53,26,23c14.73,4.61,30.49,10.2,47,17,18.79,7.74,35.8,15.91,51,24l65,14c39.76,8.57,60,13,80,18,21.55,5.45,39.15,10.48,51,14a363,363,0,0,1,50-2c46.62,1.37,80.07,10.82,104,18,33.27,10,80.81,21.6,142,28l-701,21Z" style="fill:url(#linear-gradient-14)"/><path d="M-21.67,273l-15,165,272-8a219.18,219.18,0,0,1-59-19c-23.55-11.59-28.45-19.59-48-24-24.83-5.6-31.27,4.09-50-2-17.8-5.79-25.38-18.91-44-44C21.67,323.92,3.19,300.36-21.67,273Z" style="fill:url(#linear-gradient-15)"/><path d="M276.33,434l105-4,84-8c4.39-11,2.93-15.72,1-18-6.13-7.28-23.26,2.63-54,3-12.47.15-20.07-1.36-26-2C366.6,402.86,333.77,406.84,276.33,434Z" style="opacity:0.12;fill:url(#linear-gradient-16)"/><path d="M.33,229c-.51.58,9.69,10.06,27,28,16.81,17.42,30.15,32.08,39,42,14.55,6.23,30.57,12.36,48,18a560.12,560.12,0,0,0,66,17l-106-44C14.35,238.69.9,228.36.33,229Z" style="fill:url(#linear-gradient-17)"/><path d="M194.33,337c25.87,5.65,46.59,10.12,60,13,37.79,8.11,52.54,11.14,75,17,16.68,4.35,30.22,8.33,39,11,9.74-1,20.09-1.73,31-2a390.27,390.27,0,0,1,66,4c-22.67.79-47.1,2.64-73,6-15.35,2-30,4.37-44,7-10.54-6.17-21.87-12.22-34-18A461.78,461.78,0,0,0,194.33,337Z" style="fill:url(#linear-gradient-18)"/><path d="M96.33,327a121.83,121.83,0,0,0,35,31c17.64,10.25,29.87,11.06,58,21a411.81,411.81,0,0,1,47,20,129.23,129.23,0,0,0-27-24c-18.45-12.21-33.51-15.12-54-22A360.19,360.19,0,0,1,96.33,327Z" style="fill:url(#linear-gradient-19)"/><path d="M30.33,273a82.2,82.2,0,0,0,33,34l19,16a95.72,95.72,0,0,0-47-11l11-9Q38.34,288,30.33,273Z" style="fill:url(#linear-gradient-20)"/><path d="M231.33,367c-.36.81,8.39,5.24,18,11a286.5,286.5,0,0,1,40,29,32.39,32.39,0,0,0-2-16c-3.63-8.92-10.56-13.22-34-28l-19-12,28,27C247.87,372.16,231.82,365.93,231.33,367Z" style="fill:url(#linear-gradient-21)"/></g><g id="mountain_left-2" data-name="mountain left"><path d="M381.33,430a587.16,587.16,0,0,1,88-33c61.59-17.53,85.86-13.16,124-38,12.7-8.26,21.16-16,40-24,23-9.75,35.48-8.87,63-14,19.38-3.61,54.78-10.21,90-29,27.52-14.68,23.92-20.26,60-42,7.67-4.62,21.17-12.4,70-34,60.6-26.8,68.11-39.53,88-37,19.14,2.43,31.35,15,55,40,10.24,10.83,47,51.14,81,133a639,639,0,0,1,25,72Z" style="fill:url(#linear-gradient-22)"/><path d="M658.33,426a39.76,39.76,0,0,1,9-8c9.32-6,17.33-5.36,25-7,13.16-2.81,11.58-9.35,31-21,12.65-7.58,15.82-6.32,43-18,11.25-4.84,20.25-9.16,26-12a59.46,59.46,0,0,1-14,19c-7.2,6.45-9,4.65-16,11-10.8,9.75-15.69,22.16-18,28a89.87,89.87,0,0,0-3,9Z" style="fill:url(#linear-gradient-23)"/><path d="M854.33,426c53.15-.8,96.51-1,127-1,33.27,0,53,.18,91,0,39.25-.18,71.44-.63,93-1a502.38,502.38,0,0,0-80-167c-11.49-4.63-26.47-8.83-34-2-6.23,5.66-1.65,13.71-8,22-8.06,10.55-20.51,4.13-41,13-12,5.21-19.35,12.46-32,25-16.82,16.68-14.25,20.38-26,31-17.81,16.11-26.09,9.75-52,26-21.24,13.33-20.86,20.87-41,34a140.51,140.51,0,0,1-50,20Z" style="fill:url(#linear-gradient-24)"/><path d="M885.33,324c6.44-7.95,11.16-12.36,16-16,9.83-7.38,15.5-8,30-15s14.49-9.08,31-18a293,293,0,0,1,35-16,84,84,0,0,1-14,20c-14.13,14.93-24,13.95-42,27-21.21,15.37-14.38,21.66-35,35-13.46,8.71-21.43,9.31-36,21a118.12,118.12,0,0,0-18,18C859.33,363.93,870.15,342.74,885.33,324Z" style="fill:url(#linear-gradient-25)"/><path d="M381.33,430a1041.92,1041.92,0,0,1,117-30c29.94-5.85,58.37-10,85-13,5.31-10,14.49-24,30-35,24.75-17.58,51.08-17.33,69-19,27.7-2.58,67.39-12.73,116-48a330.73,330.73,0,0,1-72,30c-47,13.21-62.41,5.88-99,23-29.09,13.61-25.68,21.22-56,33-16.79,6.52-21.61,5.65-68,18-11.33,3-28.3,7.53-46,13A770,770,0,0,0,381.33,430Z" style="fill:url(#linear-gradient-26)"/><path d="M811.33,276a208.11,208.11,0,0,1,30-23c8.73-5.51,15.94-9.08,30-16,15.12-7.44,18.53-8.58,41-19,6.57-3,22.67-10.55,42-20,14.15-6.91,25.82-12.81,34-17a44,44,0,0,1,19-2,93.66,93.66,0,0,0-15,7c-13.27,7.71-20.72,16.51-25,21-7.33,7.7-20.22,14.47-46,28a468.56,468.56,0,0,1-56,25A445.09,445.09,0,0,1,811.33,276Z" style="fill:url(#linear-gradient-27)"/><path d="M836.33,256a216.1,216.1,0,0,0-16,20c-3.8,5.47-7.05,10.91-7.35,11.41-1.09,1.84-2,3.41-2.65,4.59q-4.91-.63-6-3Q800.87,281.42,836.33,256Z" style="fill:url(#linear-gradient-28)"/><path d="M738.33,354c12.82-12.34,23.87-21.57,32-28a123.15,123.15,0,0,1,19.2-13,112.73,112.73,0,0,1,18.8-8,81.43,81.43,0,0,0-47,18A80.26,80.26,0,0,0,738.33,354Z" style="fill:url(#linear-gradient-29)"/><path d="M684.33,349a72.92,72.92,0,0,0-19,7,74.28,74.28,0,0,0-25,22,30,30,0,0,1,5-17C652.87,350.08,668.34,345.3,684.33,349Z" style="fill:url(#linear-gradient-30)"/><path d="M720.33,341a32.19,32.19,0,0,0-16,25c-.89-.67-7.46-5.71-7-12C697.86,346.85,707.38,339.45,720.33,341Z" style="fill:url(#linear-gradient-31)"/><path d="M927.33,230a201.18,201.18,0,0,0-20,22c-3.75,4.8-7.07,9.5-10,14-.26-1.41-2.7-16.06,8-27C914.05,230.09,925.26,230,927.33,230Z" style="fill:url(#linear-gradient-32)"/><path d="M873.33,278a37.84,37.84,0,0,0-21,22c-.92-2.06-2.49-6.42-1-11C853.68,281.79,862.69,276.76,873.33,278Z" style="fill:url(#linear-gradient-33)"/><path d="M835.33,312a33.45,33.45,0,0,0-8,5,34,34,0,0,0-9,12c-.25-.67-2.45-6.71,1-12C822.5,312.14,829.08,310,835.33,312Z" style="fill:url(#linear-gradient-34)"/><path d="M841.33,289a51.91,51.91,0,0,0-10,7,52.47,52.47,0,0,0-8,9c-.15-.77-1.31-7,3-12A14.27,14.27,0,0,1,841.33,289Z" style="fill:url(#linear-gradient-35)"/><path d="M555.33,412a69.41,69.41,0,0,1,15-10,71.32,71.32,0,0,1,35-7c-2.35-1-16.65-7-32,0A39.19,39.19,0,0,0,555.33,412Z" style="fill:url(#linear-gradient-36)"/></g></g><g id="foreground"><g id="gate"><path d="M955.26,64.12,912,97.3h15.08l42.23,7c.33-3.35.67-6.7,1-10Z" style="fill:#0c0b0b"/><polygon points="704.77 156.88 695.76 216.11 658.42 217.4 654.56 156.88 704.77 156.88" style="fill:#05070a"/><rect x="446.62" y="294.01" width="50.22" height="11.59" style="fill:url(#linear-gradient-37)"/><path d="M435,295.36a71.33,71.33,0,0,0,37.34-10.94,69.9,69.9,0,0,0,39.91,10.3v3.86c-12.49.84-25.83,1.32-39.91,1.29-13.13,0-25.6-.5-37.34-1.29Z" style="fill:url(#linear-gradient-38)"/><path d="M459.49,304.31l-9,222.1a50.27,50.27,0,0,0,35.41,0V304.31Z" style="fill:url(#linear-gradient-39)"/><path d="M547.69,178.77q-10,170-20,339.92a81.21,81.21,0,0,0,49.58,0l-2.58-339.92Z" style="fill:url(#linear-gradient-40)"/><path d="M778.17,169.76,765.93,542.51a73.52,73.52,0,0,0,54.08,0q-8-186.7-16.09-373.4Z" style="fill:url(#linear-gradient-41)"/><rect x="539.97" y="167.18" width="40.56" height="14.16" rx="5.53" style="fill:url(#linear-gradient-42)"/><rect x="768.51" y="154.95" width="43.78" height="15.45" rx="5.74" style="fill:url(#linear-gradient-43)"/><path d="M459.49,142.07l7.08,25.76c70.38,1.94,146.38,1.31,227.26-3.22,71-4,137.91-10.53,200.22-18.67l3.86-29.62a2410.13,2410.13,0,0,1-354.08,27Q500.87,143.47,459.49,142.07Z" style="fill:url(#linear-gradient-44)"/><path d="M894.05,145.94H905l7.08-27-14.16-2.58Z" style="fill:#0c0b0b"/><path d="M897.91,116.32l14.16,3.87L931.39,117l5.79-20.6-16.74-4.51Z" style="fill:#0c0b0b"/><path d="M438.89,126.62l5.8,18c60.3,2.75,125.54,3.17,195.06,0a2141.05,2141.05,0,0,0,277.47-30.9q1.62-10.95,3.22-21.89a2566.64,2566.64,0,0,1-325.11,33.48C541.05,127.44,488.83,127.74,438.89,126.62Z" style="fill:url(#linear-gradient-45)"/><path d="M422.8,104.09,398.33,126a1809.28,1809.28,0,0,0,236.92,3.86A1808.93,1808.93,0,0,0,922.37,92.5l34.77-23.17,12.23,35.4,9-4.5-14.8-40.56a1961.32,1961.32,0,0,1-217,36.05A1963.7,1963.7,0,0,1,422.8,104.09Z" style="fill:url(#linear-gradient-46)"/><path d="M411.21,91.22,417,105.38c22.52.74,55.2,1.61,94.64,1.93,62.1.51,111-.58,123.94-1,120.59-3.54,291.68-38.11,333.15-46.67L975.81,41C959.45,46.41,935,54,905,61.6,876.46,68.8,790.72,89,615.93,93.79,563.93,95.2,494.15,95.52,411.21,91.22Z" style="fill:url(#linear-gradient-47)"/><rect x="603.48" y="295.05" width="46.45" height="11.35" style="fill:url(#linear-gradient-48)"/><path d="M592.76,294.42a62.91,62.91,0,0,0,20.84-3.78,64.85,64.85,0,0,0,13.7-6.93,62.81,62.81,0,0,0,12.5,6.3,62,62,0,0,0,24.42,3.78v3.78c-11.56.82-23.9,1.3-36.92,1.27-12.15,0-23.69-.5-34.54-1.27Z" style="fill:url(#linear-gradient-49)"/><path d="M615.39,305.14l-8.34,217.48a44.12,44.12,0,0,0,32.75,0V305.14Z" style="fill:url(#linear-gradient-50)"/><rect x="695.83" y="293.01" width="56.07" height="12.52" style="fill:url(#linear-gradient-51)"/><path d="M682.89,292.32a82.56,82.56,0,0,0,25.16-4.18,80.58,80.58,0,0,0,16.53-7.65,79.58,79.58,0,0,0,15.1,7,81.53,81.53,0,0,0,29.47,4.17v4.17c-13.95.91-28.84,1.43-44.57,1.4-14.66,0-28.59-.55-41.69-1.4Z" style="fill:url(#linear-gradient-52)"/><path d="M710.2,304.14l-10.06,240a57.88,57.88,0,0,0,39.54,0v-240Z" style="fill:url(#linear-gradient-53)"/><rect x="842.32" y="298.92" width="46.45" height="11.35" style="fill:url(#linear-gradient-54)"/><path d="M831.6,298.29a62.88,62.88,0,0,0,20.84-3.79,64.38,64.38,0,0,0,13.7-6.93,63.09,63.09,0,0,0,12.5,6.3,62.2,62.2,0,0,0,24.42,3.79v3.78c-11.56.82-23.89,1.29-36.92,1.26-12.15,0-23.68-.49-34.54-1.26Z" style="fill:url(#linear-gradient-55)"/><path d="M854.23,309l-8.34,217.48a44.12,44.12,0,0,0,32.75,0V309Z" style="fill:url(#linear-gradient-56)"/><path d="M485.89,329.42v25.75l68.24.64,1.29-25.75Z" style="fill:url(#linear-gradient-57)"/><path d="M485.33,436.64v25.75l68.24.64,1.29-25.75Z" style="fill:url(#linear-gradient-58)"/><path d="M576,331.35v26.39H625q.31-12.56.64-25.11Z" style="fill:url(#linear-gradient-59)"/><path d="M576.66,436.28V462l43.14-1.93q.32-11.91.64-23.82Z" style="fill:url(#linear-gradient-60)"/><path d="M741.33,325.84v22.53l48.93-.64q.33-10.62.64-21.25Z" style="fill:url(#linear-gradient-61)"/><path d="M739.54,440.79v24.46l52.15.65q.31-12.24.64-24.47Z" style="fill:url(#linear-gradient-62)"/><path d="M811,327.48q.32,9.66.64,19.32l50.22,1.29q.32-9.66.64-19.32Z" style="fill:url(#linear-gradient-63)"/><path d="M815.51,442.08q.29,9.66.58,19.31l45.82,1.29q.3-9.66.59-19.31Z" style="fill:url(#linear-gradient-64)"/><path d="M451.77,330.06h-3.22v4.51h3.86q-.32,9.33-.64,18.67H455q.31-10.64.64-21.25Z" style="fill:#701616"/><path d="M471.72,330.06h-20v4.51H455q-.33,9.33-.65,18.67h16.74Q471.41,341.65,471.72,330.06Z" style="fill:url(#linear-gradient-65)"/><path d="M446.62,437.57H443.4v4.51h3.86q-.31,9.33-.64,18.67h3.22q.32-10.62.64-21.25Z" style="fill:#701616"/><path d="M466.57,437.57H446.62v4.51h3.22q-.33,9.33-.65,18.67h16.74Q466.26,449.16,466.57,437.57Z" style="fill:url(#linear-gradient-66)"/><path d="M699.62,326.84h-3.21v4.51h3.86q-.33,9.33-.65,18.67h3.22q.33-10.63.65-21.25Z" style="fill:#701616"/><path d="M719.58,326.84h-20v4.51h3.22q-.32,9.33-.64,18.67h16.74Q719.25,338.43,719.58,326.84Z" style="fill:url(#linear-gradient-67)"/><path d="M697.05,441.43h-3.22v4.51h3.86q-.32,9.33-.64,18.67h3.22q.32-10.62.64-21.24Z" style="fill:#701616"/><path d="M717,441.43h-20v4.51h3.22q-.33,9.33-.65,18.67h16.74Q716.69,453,717,441.43Z" style="fill:url(#linear-gradient-68)"/><path d="M633.31,156.88,644.9,217.4l38-1.29-5.8-59.87L673.87,155Z" style="fill:#05070a"/><path d="M673.87,155l8.37,61.16q-2.57-29.94-5.15-59.87Z" style="fill:#020202"/><path d="M469.71,239c0,.41,8.77-1.17,21.11-1,63.43.83,104-.94,142.75,0,33.34.8,81.42.71,142.14-3.71A44.84,44.84,0,0,1,788.38,231a45.49,45.49,0,0,1,19.1,2l93.5-5q.49-14.56,1-29.15l6-3c.34-2.68.67-5.36,1-8h-6C565.32,225.74,469.56,237.67,469.71,239Z" style="fill:url(#linear-gradient-69)"/><path d="M469.79,214.18v24.46Q556.42,238,643,235.42q127.2-3.75,254.3-11.59V195.51c-67.78,8.34-141.16,14.78-219.53,18C604,216.59,534.5,216.46,469.79,214.18Z" style="fill:url(#linear-gradient-70)"/><path d="M463.36,205.17q.31,4.82.64,9.65c58.78,1.9,120.91,2.11,186,0,90.14-2.92,174.5-9.89,252.37-19.31.21-2.58.43-5.15.64-7.73q-53.12,6-108.8,10.3A3022.07,3022.07,0,0,1,463.36,205.17Z" style="fill:url(#linear-gradient-71)"/><path d="M398.33,125.92l9.44,4.94a1903.59,1903.59,0,0,0,261.49.45,1902.8,1902.8,0,0,0,257.45-35l29.21-23.81,9.88,33.25,3.6-.9L957.27,69.31q-16.86,11-33.7,22A2066.62,2066.62,0,0,1,667.91,125,2065.71,2065.71,0,0,1,398.33,125.92Z" style="fill:url(#linear-gradient-72)"/><path d="M959.51,61.67l8.09-18,8.09-2.7L969,59.87Z" style="fill:url(#linear-gradient-73)"/><path d="M441,133.11q1.8,5.83,3.59,11.68l50.77,1.8-48.52-4.05-2.7-9.43Z" style="fill:#fcf9e6;opacity:0.11"/><path d="M460.34,145.24l8.53,19.32,20.22,3.59H466.63Q463.48,156.69,460.34,145.24Z" style="fill:#fcf9e6;opacity:0.11"/><path d="M463.48,205l2.25,6.73,14.83,3.6-16.63-.45Z" style="fill:#fcf9e6;opacity:0.17"/><path d="M469.77,214.88,472,235.1,486,238.24l-16.18.9Z" style="fill:#fcf9e6;opacity:0.11"/><path d="M540.31,168.6a2.22,2.22,0,0,0-.45.9,2.31,2.31,0,0,0,0,.9v9a2.09,2.09,0,0,0,1.35,1.79,1.6,1.6,0,0,0,.9,0H548a7.06,7.06,0,0,1-4.49-1.79c-1.19-1.16-1.56-2.58-2.25-5.4A36.93,36.93,0,0,1,540.31,168.6Z" style="fill:#f9ee8a;opacity:0.21"/><path d="M544.36,238.24l.45,91.66H539Z" style="fill:#fcf9e3;opacity:0.12"/><path d="M537.17,355.51h4.49q-2,40.74-4,81.49h-5Z" style="fill:#fcf9e3;opacity:0.08"/><path d="M530.88,463l-3.15,55.64,7.19,1.77.9-57.41Z" style="fill:#fcf9e3;opacity:0.08"/><path d="M446.33,299c0,2.21.05,4.43.08,6.64l27.86-1.35.06-4.29c-4.92.23-10.27.27-16,0C454.1,299.8,450.09,299.45,446.33,299Z" style="fill:#fcf9e3;opacity:0.13"/><path d="M603.66,298v8.54l25.61-1.35V298.9Z" style="fill:#fcf9e3;opacity:0.13"/><path d="M695.77,296.65v9l30.1-1.35V297.1Z" style="fill:#fcf9e3;opacity:0.13"/><path d="M842.24,302v8.09l26.51-1.35v-6.29Z" style="fill:#fcf9e3;opacity:0.13"/><path d="M460.79,353.27l-3.6,84.46h-3.14q1.79-42.23,3.59-84.46Z" style="fill:#fffce9;opacity:0.08"/><path d="M453.15,460.65l-2.7,65.6,4.5,1.34,1.34-66.94Z" style="fill:#fffce9;opacity:0.08"/><path d="M459.44,305.64l-.9,24.26h3.59q-.22-12.13-.44-24.26Z" style="fill:#fffce9;opacity:0.08"/><path d="M776.6,234.17,773.37,325h7l1.08-92.15Z" style="fill:#fffce9;opacity:0.03"/><path d="M778,170q-.45,14.6-.89,29.2h5.39l.45-28.75Z" style="fill:#fffce9;opacity:0.03"/><path d="M772.15,348.77q-1.35,46.28-2.69,92.56h5.84l1.35-92.56Z" style="fill:#fffce9;opacity:0.03"/><path d="M768.56,465.59l-2.7,76.83,8.09,2.7V465.59Z" style="fill:#fffce9;opacity:0.03"/><path d="M633.32,156.92l4.94,25.61c1.13,5.88,3.37,17.49,4.49,23.36l27-.89c-4.57.34-13.22.27-19.32-5.4-3.58-3.32-4.82-7.22-5.84-10.33C641.93,181.22,638.41,170.93,633.32,156.92Z" style="fill:#f4f0d7;opacity:0.07"/><path d="M710.15,305.64l-.9,21.12h6.29Q712.84,316.2,710.15,305.64Z" style="fill:#fffce9;opacity:0.02"/><path d="M708.35,350.12q-2,45.6-4,91.21h6.74l1.35-91.21Z" style="fill:#fffce9;opacity:0.02"/><path d="M703.41,464.69l-3.15,79.53,5.85,1.8q.45-40.67.89-81.33Z" style="fill:#fffce9;opacity:0.02"/><path d="M548,181.18l27,9.89v-9.89Z" style="opacity:0.48"/><path d="M544.36,238.24a74.74,74.74,0,0,1,31,13V237.79Z" style="opacity:0.43"/><path d="M461.69,305.64,486,315.52V304.29Z" style="opacity:0.5"/><path d="M471.57,329.9c2.61,2.65,5.45,5.36,8.54,8.09,2,1.75,3.92,3.39,5.84,4.94v14.38a15.69,15.69,0,0,1-14.83-4Z" style="fill:#020202;opacity:0.17"/><path d="M466.63,436.84A40.4,40.4,0,0,0,486,452.11v19.32a22.62,22.62,0,0,1-20.22-10.78Z" style="fill:#020202;opacity:0.17"/><path d="M555.59,436.39A37.46,37.46,0,0,0,576.71,449l.45,27.85A44.58,44.58,0,0,1,554.24,462Z" style="fill:#020202;opacity:0.17"/><path d="M555.59,329.9a18.47,18.47,0,0,0,4.94,5.84c6.24,4.81,13.59,3.86,15.28,3.6l.45,27.4a43.68,43.68,0,0,1-22-10.78Z" style="fill:#020202;opacity:0.17"/><path d="M625.68,332.6a46.84,46.84,0,0,0,5.84,2.69,46,46,0,0,0,8.09,2.25v25.61a13.27,13.27,0,0,1-7.64,0,13.47,13.47,0,0,1-7.19-5.39Z" style="opacity:0.17"/><path d="M620.29,436.39a15.3,15.3,0,0,0,10.78,5.84,14.62,14.62,0,0,0,8.54-2.25v25.16a13.76,13.76,0,0,1-7.19,2.25c-7.6.12-12.19-6.59-12.58-7.19Z" style="opacity:0.17"/><path d="M460.34,145.24c55.08,2.51,113,3.57,173.43,2.69,93.48-1.35,181.05-7.17,261.94-15.72L898,116.48a2107.44,2107.44,0,0,1-222.41,26.06A2111.53,2111.53,0,0,1,460.34,145.24Z" style="fill:#070a11"/><path d="M778.19,169.46l26.12,10.86c0-3.15-.07-6.3-.1-9.45Z" style="opacity:0.5"/><path d="M768.56,159.17l43.58,5.39-.9-9Z"/><path d="M775.75,234.2a48.1,48.1,0,0,1,7.19,1.35,52.83,52.83,0,0,1,24.71,15.27v-18a45.33,45.33,0,0,0-31.9,1.35Z" style="opacity:0.5"/><path d="M789.23,327.66a50.7,50.7,0,0,1,22,13l.9,19.77q-5.57-2.61-11.23-5.39-6.4-3.13-12.58-6.29Z" style="fill:#020202;opacity:0.17"/><path d="M739.35,326.76l19.32,22.46H739.35Z" style="fill:#381513;opacity:0.5"/><path d="M710.15,305.64l29.65,11.68v-13Z" style="opacity:0.5"/><path d="M615.35,306.54l24.26,14.38V306.54Z" style="opacity:0.5"/><path d="M792.37,441.33c2.06,1.22,4.3,2.43,6.74,3.59a82.55,82.55,0,0,0,16.63,5.84q.88,15.28,1.79,30.56a115.47,115.47,0,0,1-15.72-8.09A113.25,113.25,0,0,1,791.47,466Z" style="fill:#020202;opacity:0.17"/><path d="M739.35,440.88l21.12,24.71-21.12-.45Z" style="fill:#381513;opacity:0.5"/><path d="M854.38,310.13c2.73,1.43,5.59,3.07,8.53,4.94a112.87,112.87,0,0,1,15.73,12.14V308.78Z" style="opacity:0.5"/><path d="M862.46,443.58a33.41,33.41,0,0,0,16.18,12.58v21.11A33.46,33.46,0,0,1,862,461.1Z" style="opacity:0.17"/><path d="M862.46,328.55a30.14,30.14,0,0,0,16.18,9v21.12a40.14,40.14,0,0,1-8.54-4.05,39.68,39.68,0,0,1-8.09-6.74Z" style="opacity:0.17"/></g></g></svg>